<svg xmlns="http://www.w3.org/2000/svg" width="213" height="90" fill="none" xmlns:v="https://vecta.io/nano"><g clip-path="url(#B)"><mask id="A" maskUnits="userSpaceOnUse" x="0" y="0" width="213" height="90"><path d="M212.459 0H0V90H212.459V0Z" fill="#fff"/></mask><g mask="url(#A)"><path d="M10.164 48.264l1.623 1.18 1.18-1.623-1.771-1.328-.738 1.18-1.771-1.18-1.033 1.623 1.771 1.328.738-1.18zm32.903-2.656l1.918 1.328 1.033-1.77-1.77-1.18-1.18 1.623zm-.886-3.099c.885 0 1.475 0 1.918-.148s.885-.295 1.18-.59.59-.738.738-1.033c.148-.443.295-.885.295-1.328s-.148-1.033-.295-1.623c-.148-.738-.443-1.328-.738-1.918h-.148l-1.771 1.328.738 1.623c.148.443.295.885.295 1.18v.148c-.148 0-.295.148-.59.148H42.77 18.573c-.59 0-1.18 0-1.771-.148s-1.328-.295-2.066-.59l-1.18-.295-.59 2.066 1.476.443c.295.148.59.295.738.295.148.148.148.295.148.443-.148.147-.443.443-1.033.59-.443.148-1.033.295-1.623.295-.59.148-1.328.148-1.918.148-.885 0-1.623-.148-2.066-.295s-.885-.443-1.033-.885c-.148-.295-.295-.738-.295-1.328v-.59c0-.295.148-.59.148-.885l-.148-.148-1.918.59-.295 1.918c0 .738.148 1.328.59 1.918s1.033 1.033 1.771 1.328 1.771.443 2.951.443c1.328 0 2.361-.148 3.394-.443s1.771-.59 2.361-1.033.885-1.033 1.033-1.771h24.935v.148zm10.033-.147c.59-.295 1.18-.59 1.476-1.033s.59-1.033.59-1.623c0-.738-.295-1.623-.738-2.508-.59-.885-1.18-1.771-2.213-2.803h-.148l-1.328 1.918 1.771 1.918c.59.738.885 1.328 1.033 1.77-.148.148-.59.148-1.033.295-.443 0-1.033.148-1.475.148h-1.18c-.443 0-.738 0-.885-.148h-.148l-.295 2.066c.295 0 .59.148 1.033.148h1.328c.738.147 1.475 0 2.213-.148zM62.1 31.886l1.77 1.18 1.033-1.623-1.77-1.18-.738 1.033-1.623-1.033-1.18 1.623 1.77 1.18.738-1.18zm28.771 8.705c-.295 0-.59 0-.885-.148s-.59-.295-1.033-.59c.295-.443.443-.885.738-1.033.147-.295.295-.295.59-.295.148 0 .443.148.59.295.147.295.295.443.443.885.147.295.147.59.295.885h-.738zm-27.443-1.18h-.885c-.295 0-.738 0-1.033-.148a1.15 1.15 0 0 1-.59-.59c.148-.295.443-.443.885-.738s1.033-.443 1.623-.59v2.066zm29.361 2.656c.295-.443.59-1.033.59-1.77a4.53 4.53 0 0 0-.443-1.918c-.296-.59-.738-1.033-1.18-1.475-.443-.295-1.033-.59-1.475-.59s-.885.148-1.328.443-.738.59-1.033 1.033l-.885 1.328c-.148.295-.295.59-.443.738s-.295.295-.443.295-.295.148-.59.148H68.002c-.443 0-.738 0-1.033-.148s-.443-.148-.443-.295c-.148-.148-.148-.443-.148-.738v-5.164h-.148l-2.066.738v.738c-.885.295-1.623.59-2.213 1.033s-1.033.885-1.475 1.328a2.85 2.85 0 0 0-.443 1.476c0 .443.148.885.443 1.18s.59.59 1.033.738 1.033.295 1.623.295 1.033-.148 1.623-.295c.295.443.59.738 1.18.885.443.148 1.033.295 1.623.295h17.263c.59 0 1.18 0 1.623-.148s.738-.443 1.18-.738c.59.443 1.18.738 1.77.885s1.18.295 1.623.295c.885.148 1.475-.147 1.77-.59zm5.017-1.771c-.59 0-1.033 0-1.328-.148s-.443-.295-.443-.59c0-.148 0-.443.148-.59l.443-.443c.148-.148.295-.148.59-.148.148 0 .443.148.59.295s.295.443.443.738.148.59.295 1.033h-.738v-.148zm9 .738c.295.443.738.738 1.18 1.033s.886.443 1.476.443 1.328-.148 2.066-.295 1.623-.443 2.803-.885l2.508-.738 2.066-.443.59-2.066c-.443 0-.885-.148-1.328-.295s-1.18-.443-2.066-1.033c-.885-.443-1.623-.738-2.065-.885s-.885-.295-1.181-.295-.59 0-.885.148a1.13 1.13 0 0 0-.738.295l-.737 1.918.147.148c.295-.148.738-.148 1.033-.295.295 0 .59-.147 1.033-.147s.738 0 1.18.147 1.033.443 1.623.738c.443.148.738.295.886.443-.148 0-.296.147-.738.147-.295.148-.738.148-1.181.295l-2.508.59c-.59.148-1.328.148-2.065.148-.296 0-.591-.148-.886-.295s-.59-.443-.885-.59l-1.033-1.033-1.328-1.328-1.623-1.475 3.689-1.771.738-2.656-.148-.148-6.049 3.099-.443 2.361.148.148c.737.443 1.475 1.033 2.213 1.623s1.18 1.033 1.475 1.475c-.147.148-.442.295-.737.443-.443.148-.886.148-1.623.148h-2.951c0-.738-.148-1.476-.443-2.066s-.59-1.033-1.033-1.475c-.443-.295-.885-.59-1.475-.59s-1.033.148-1.475.59c-.443.295-.738.885-1.033 1.328-.295.59-.443 1.18-.443 1.623 0 .738.295 1.475.885 1.918s1.475.59 2.508.738c-.443.443-.885.738-1.623.885s-1.623.295-2.656.295l-.147.148 1.033 1.623c.885 0 1.77-.148 2.508-.443s1.328-.59 1.771-1.033.885-1.033 1.033-1.623h2.656c.886 0 1.476 0 2.066-.148l1.475-.443c.295.295.591 0 .738-.443zM7.951 56.821h1.475v1.328c-.295.148-.59.148-1.033.148-.59 0-1.18-.148-1.475-.59s-.443-.885-.443-1.771c0-.738.148-1.328.443-1.623.295-.443.738-.59 1.475-.59.59 0 1.033.148 1.623.443l.59-.885c-.295-.148-.738-.295-1.033-.443-.443-.148-.738-.148-1.18-.148-.59 0-1.18.148-1.771.295-.443.295-.885.59-1.18 1.18S5 55.346 5 56.231c0 1.033.295 1.918.738 2.508.59.59 1.328.885 2.508.885.443 0 .885 0 1.18-.148l1.328-.443v-3.394H8.098l-.148 1.18zm8.705.59c-.148.295-.295.59-.59.738s-.59.295-1.033.295c-.59 0-1.033-.148-1.328-.59s-.443-1.033-.443-1.771.148-1.328.443-1.623c.295-.443.738-.59 1.475-.59.59 0 1.033.148 1.328.59s.443 1.033.443 1.771c0 .443-.148.738-.295 1.18zm.295-4.279c-.443-.295-1.18-.443-1.771-.443s-1.18.148-1.771.443c-.443.295-.885.59-1.18 1.18s-.443 1.18-.443 1.918.147 1.328.443 1.77a2.3 2.3 0 0 0 1.18 1.18c.443.295 1.18.443 1.771.443s1.18-.148 1.771-.443c.443-.295.885-.59 1.18-1.18s.443-1.18.443-1.918-.148-1.328-.443-1.77c-.295-.59-.738-.885-1.18-1.18zm5.017 4.87l-1.771-5.164h-1.475l2.508 6.64h1.623l2.361-6.64h-1.476l-1.77 5.164zm5.606-1.328h2.361l.295-1.18h-2.656v-1.475h2.951v-1.18h-4.426v6.64h4.574v-1.18h-3.098v-1.623zm7.23-1.033c-.295.148-.59.295-1.033.295h-.59v-1.918h.738c.295 0 .59.148.885.295.148.148.295.443.295.738.147.148 0 .443-.295.59zm1.623.443c.295-.295.295-.738.295-1.18s-.148-.738-.295-1.033-.443-.59-.885-.738-.885-.295-1.475-.295h-2.213v6.64h1.475V56.97h.59l1.623 2.508h1.623v-.148l-1.77-2.508c.443-.148.738-.443 1.033-.738zm6.197 1.18c0-.148-.148-.295-.148-.443-.148-.148-.148-.295-.295-.443s-.148-.295-.148-.295l-2.361-3.393H38.05v6.639h1.475v-4.574c.148.295.295.443.295.738.148.148.295.443.443.738l2.066 3.098h1.623V52.69h-1.475v4.574h.148zm7.082-1.623l-.59 1.328c0-.148-.148-.443-.295-.59-.148-.295-.148-.443-.295-.738L47.05 52.69h-1.476v6.639h1.476v-4.131c.147.295.295.59.443 1.033l1.18 2.361h1.18l1.18-2.361a7.17 7.17 0 0 1 .443-1.033v4.131h1.475V52.69h-1.475l-1.77 2.951zm5.902 1.033h2.508l.148-1.18h-2.656v-1.475h3.098v-1.18h-4.574v6.64h4.574v-1.18h-3.098v-1.623zm8.853.59c0-.148-.148-.295-.148-.443-.148-.148-.148-.295-.295-.443s-.148-.295-.148-.295l-2.36-3.393h-1.623v6.639h1.475v-4.574c.148.295.295.443.295.738.148.148.295.443.443.738l2.066 3.098h1.623V52.69h-1.475v4.574h.148zm2.213-3.246h2.213v5.459h1.475v-5.459h2.066v-1.18h-5.754v1.18zm13.574 3.393c-.148.295-.295.59-.59.738s-.59.295-1.033.295c-.59 0-1.033-.148-1.328-.59s-.443-1.033-.443-1.771.147-1.328.443-1.623c.295-.443.738-.59 1.475-.59.59 0 1.033.148 1.328.59s.443 1.033.443 1.771c0 .443-.147.738-.295 1.18zm.295-4.279c-.443-.295-1.18-.443-1.77-.443s-1.18.148-1.771.443c-.443.295-.885.59-1.18 1.18s-.443 1.18-.443 1.918.148 1.328.443 1.77a2.3 2.3 0 0 0 1.18 1.18c.443.295 1.18.443 1.771.443s1.18-.148 1.77-.443c.443-.295.885-.59 1.18-1.18s.443-1.18.443-1.918-.148-1.328-.443-1.77c-.295-.59-.738-.885-1.18-1.18zm2.656 6.345h1.328v-2.656h2.508l.147-1.18h-2.656v-1.623h3.099v-1.18h-4.426v6.64zm11.804-2.066c-.147.295-.443.443-.738.59s-.885.148-1.475.148h-.443v-4.131h.885c.443 0 .885 0 1.18.148s.59.295.738.59.295.738.295 1.18c-.148.738-.148 1.18-.443 1.475zm-1.77-4.574H91.02v6.64h2.213c.738 0 1.328-.148 1.918-.295.59-.295 1.033-.59 1.328-1.18.295-.443.443-1.18.443-1.918 0-1.18-.295-2.066-1.033-2.656-.59-.443-1.475-.59-2.656-.59zm9.147 3.837c0 .443-.148.885-.295 1.18-.295.295-.59.443-1.181.443s-1.032-.148-1.18-.443c-.295-.295-.295-.738-.295-1.328V52.69h-1.475v3.984c0 .59.148 1.033.295 1.475s.443.738.885 1.033 1.033.443 1.623.443 1.18-.148 1.623-.295.737-.443 1.033-.885.442-1.033.442-1.623v-3.984h-1.475v3.836zm6.049 1.328c-.147.148-.443.295-.885.295h-1.033v-1.77h1.033c.442 0 .738.148.885.295s.295.295.295.59 0 .443-.295.59zm-1.918-4.131h1.033c.295 0 .59 0 .738.148s.295.295.295.59c0 .59-.443.885-1.181.885h-.885V53.87zm3.246 2.508a1.13 1.13 0 0 0-.738-.295c.295-.148.59-.295.738-.59s.295-.59.295-.885-.147-.738-.295-.885c-.148-.295-.443-.443-.885-.59s-.886-.148-1.328-.148h-2.508v6.639h2.655c.886 0 1.476-.148 1.918-.443s.591-.885.591-1.475c0-.295 0-.443-.148-.59 0-.443-.147-.59-.295-.738zm3.394.295l.885-2.508.885 2.508h-1.77zm-.148-3.836l-2.361 6.64v.148h1.476l.59-1.623h2.508l.59 1.623h1.623v-.148l-2.36-6.64h-2.066zm6.64-.001h-1.476v6.64h1.476v-6.64z" fill="#fff"/><path d="M207.432 13.148l-14.607 13.574c-.148-.148-.148-.295-.295-.443l9-8.41.148-.148.295-2.803 5.459-1.771zm-8.41 16.23c.295.443.59 1.033.885 1.623.148.295.295.443.443.738l-12.984 13.427c0-.148.147-.295.147-.443.738-1.623.295-2.951.295-2.951 0-.148-.147-.148-.295-.295-.147 0-.295 0-.295.148 0 0-.59.59-1.77 3.246 0 .148-.148.295-.148.443l-.885-2.803c.295-.295 1.033-1.18 1.328-2.656.295-1.771-.295-2.951-.443-2.951 0-.148-.147-.148-.295-.148s-.295 0-.295.148-.59.885-1.033 3.541v.295c-.295-.738-.738-1.328-1.033-1.918v-.738l8.263-7.672 1.328.295-.59-.885.295-.295c.737.59 1.18.738 1.475.885l1.476.443 1.18.148-1.918-2.803c-.148-.147-.148-.295-.295-.295l3.541-3.246c-.148 1.623.738 3.098 1.623 4.721zM186.48 51.952v-.59-.443-.295c0-.295.148-.59.296-.738 1.032-2.508 1.623-3.098 1.623-3.098h.147.148s.442 1.18-.295 2.803c-.443 1.18-1.181 1.771-1.476 2.066-.295.148-.295.148-.443.295zm2.066 3.246c-.885 1.328-1.77 1.77-2.213 1.918 0-.295 0-.738.147-1.033l.443-.885c1.476-2.213 2.213-2.656 2.213-2.656v.148c.295-.148.443 1.033-.59 2.508zm-39.69 1.918c-.295-.148-1.327-.59-2.213-1.918-1.033-1.475-.737-2.656-.737-2.656v-.148s.737.443 2.213 2.656c.147.295.295.59.442 1.033.148.295.148.59.295 1.033zm-.147-5.607v.59s-.148 0-.148-.148c0 0-.147 0-.147-.148-.443-.295-1.033-.885-1.476-2.066-.737-1.623-.295-2.803-.295-2.803h.148.147s.591.59 1.623 3.099c.148.295.148.59.295.885v.295s-.147.148-.147.295zm51.936-19.328c.59 1.18 1.033 2.508 1.328 3.984.885 3.099 1.18 6.345 1.18 9.738-.147 6.345-2.213 12.689-5.754 18.296-1.476 2.361-3.246 4.721-5.164 6.787-2.509 2.656-5.607 5.016-8.853 6.935-3.541 2.066-10.181 5.607-15.64 7.377-5.459-1.771-12.098-5.459-15.64-7.377-3.393-1.918-6.344-4.279-8.852-6.935-1.918-2.066-3.689-4.279-5.164-6.787-3.541-5.607-5.459-11.951-5.755-18.296-.147-3.393.296-6.639 1.181-9.738.442-1.475.885-2.656 1.328-3.984l12.541 13.132 2.213 2.361-.442 2.361s0-.148-.148-.148c-1.033-2.508-1.623-3.098-1.771-3.246s-.295-.148-.295-.148a.32.32 0 0 0-.295.295s-.442 1.328.295 2.951 1.623 2.361 2.066 2.508v1.77 1.18c0-.148-.148-.295-.295-.443-1.476-2.213-2.213-2.656-2.361-2.803-.147 0-.295-.148-.442 0-.148 0-.148.148-.148.295 0 0-.148 1.328.885 2.951 1.033 1.475 2.066 1.918 2.509 2.066l.442 2.951c0-.148-.147-.148-.147-.295-1.623-2.066-2.361-2.508-2.509-2.656h-.442c-.148 0-.148.147-.148.295 0 0-.147 1.475 1.033 2.803 1.18 1.475 2.213 1.771 2.656 1.918h.147c.295.885.591 1.918.886 2.803-1.918-1.623-2.656-1.918-2.804-1.918s-.295 0-.295.148c-.147.148-.147.148-.147.295 0 0 .147 1.328 1.623 2.656 1.328 1.18 2.36 1.328 2.655 1.328h.148c.443.885.885 1.77 1.475 2.656-2.36-1.033-3.393-1.18-3.393-1.18-.148 0-.295 0-.295.147s-.148.295 0 .443c0 0 .59 1.328 2.213 2.066.738.295 1.328.443 2.066.59h.295c.295 0 .59 0 .737-.148 0 .148.148.148.148.295.443.59.885 1.033 1.475 1.623-2.36-.738-3.098-.738-3.098-.738-.148 0-.295.148-.295.148v.443s.738 1.18 2.361 1.77c.442.148.885.295 1.328.295h.737c.443 0 .738 0 1.033-.147.59.443 1.18.885 1.771 1.475.295.295.59.443.885.738h-.148c-2.655-.443-3.541-.148-3.688-.148a.32.32 0 0 0-.295.295v.295s.885 1.033 2.655 1.328c.296 0 .738.147 1.033.147h.295c1.033 0 1.623-.295 1.771-.443.59.295 1.033.59 1.475.885 1.033.59 2.214.885 3.246 1.033a5.62 5.62 0 0 0 3.246-1.033c.443-.295.886-.59 1.476-.885.147.148.738.443 1.77.443h.295c.296 0 .738 0 1.033-.147 1.771-.295 2.656-1.328 2.656-1.328.148-.148.148-.295 0-.295a.32.32 0 0 0-.295-.295s-.885-.295-3.689.148h-.147c.295-.295.59-.443 1.033-.738.59-.443 1.18-.885 1.77-1.475.148 0 .59.147 1.033.147h.738c.442 0 .885-.147 1.328-.295 1.77-.59 2.36-1.77 2.36-1.77v-.443c0-.148-.147-.148-.295-.148 0 0-.885 0-3.098.738.442-.59 1.033-1.033 1.475-1.623 0-.147.148-.147.148-.295h.738.295c.59 0 1.327-.295 2.065-.59 1.623-.738 2.213-1.918 2.213-2.066v-.443c0-.148-.147-.148-.295-.148s-1.033 0-3.393 1.18c.59-.885 1.033-1.77 1.475-2.656h.148c.295 0 1.328-.148 2.656-1.328s1.623-2.508 1.623-2.656 0-.295-.148-.295c-.147-.148-.295-.148-.295-.148-.148 0-.885.295-2.803 1.918a64.75 64.75 0 0 0 .885-2.803h.147c.295 0 1.476-.443 2.656-1.918s1.033-2.803 1.033-2.803c0-.147-.148-.295-.148-.295h-.442c-.148 0-.885.443-2.508 2.656 0 .148-.148.148-.148.295l.443-2.951c.295 0 1.475-.59 2.36-2.066 1.033-1.475.886-2.803.886-2.951a.32.32 0 0 0-.295-.295h-.443c-.148 0-.738.59-2.361 2.803-.147.148-.147.295-.147.295v-1.18-1.771c.295-.148 1.328-.885 1.918-2.508.737-1.623.295-2.951.295-2.951 0-.148-.148-.148-.295-.295-.148 0-.295 0-.295.148 0 0-.738.738-1.771 3.246v.148l-.443-2.361 9.148-9.591 5.017-5.607zm-65.51-1.328c.295-.59.59-1.033.885-1.623.885-1.475 1.918-3.098 2.066-5.017l3.541 3.246c-.148.147-.148.295-.295.295-.59.738-1.181 1.623-1.918 2.803l1.18-.148c.443-.148 1.033-.148 1.475-.443.148-.148.591-.295 1.476-.885l.295.295-.59.885 1.328-.295.147.148 7.968 7.377v.738c-.443.59-.738 1.328-1.033 1.918v-.295c-.59-2.656-1.033-3.394-1.033-3.541-.148-.148-.148-.148-.295-.148s-.295 0-.295.148c0 0-.738 1.18-.443 2.951.295 1.475.885 2.361 1.328 2.656-.295.885-.738 1.918-.885 2.803 0-.148-.148-.295-.148-.59-1.033-2.508-1.77-3.099-1.77-3.246-.148-.148-.295-.148-.295-.148a.32.32 0 0 0-.295.295s-.443 1.328.295 2.951c0 .148.147.295.147.443l-12.984-13.427c0 .443 0 .147.148-.148zm-7.525-17.705l5.459 1.771.295 2.803s0 .148.148.148l9 8.41c-.147.148-.148.295-.295.443L127.61 13.148zm15.345 13.427c0-.148.147-.148.147-.295s.148-.148.148-.295c.147-.148.295-.443.295-.59.59-.885 1.033-1.623 1.475-2.508l1.771-3.099c.442-.885 1.033-1.918 1.623-3.098h.295c.443-.148.885-.295 1.18-.443l-.737.885 1.327-.147c.296 0 .591-.148 1.033-.295.295-.148.738-.295 1.033-.443l-.147.295 1.327-.295c1.033-.148 1.919-.59 2.656-1.18l.886-.148c.295 0 .59-.148.737-.148l-.295.295h1.033.295c.443 0 .885 0 1.328-.148l-.443.443-.442.443.442.443s.443.443 1.328.443c0 0 0 .148-.147.148l-.295.443.442.295s.148 0 .148.147c0 0 .147 0 .147.148s.148.295.148.59l.443.885c.147.295.147.59.295.885v.148.295.295s0 .885-.886 2.508c-.737 1.623-1.18 2.508-2.213 3.393-.59.443-1.328.738-1.77.885.295-.738.59-1.623 1.032-2.361.148-.443.296-.885.591-1.475.295-.885.59-1.623.737-2.508l.886-3.393c-.148.443-.738 2.951-1.623 5.017-.295.885-.591 1.623-1.033 2.213v.147c-.148.295-.443.59-.59.885-.886 1.033-1.918 1.623-2.656 2.066-.295.148-.59.295-.738.443l.148-.148c.147-.148.59-.59 1.18-2.213.443-1.033.59-1.771.738-1.918.147-.59.295-1.033.295-1.18l1.18-4.869c-.442 1.623-.738 3.099-1.18 4.131-.738 2.066-1.181 3.541-2.213 4.721-1.033 1.328-2.066 1.623-2.509 1.771-.295 0-.442.148-.59.148.443-.738.738-1.475 1.181-2.213.147-.148.147-.295.295-.59a43.2 43.2 0 0 0 2.803-8.41l.443-2.066c-.148.738-.295 1.328-.443 1.918-.59 2.361-1.328 4.426-1.918 5.754-.443 1.033-.738 1.918-1.328 2.803-.295.295-.59.738-.885 1.033-1.181 1.328-2.509 2.066-3.394 2.361.59-.885 1.181-1.918 1.771-2.951 0-.148.147-.295.147-.295 1.328-2.508 2.361-4.869 2.951-6.935-.738 1.77-1.475 3.246-2.065 4.426-.591 1.033-1.181 1.918-1.623 2.656-1.181 1.771-2.066 2.508-2.656 2.803-.148 0-.148.148-.295.148s-.148.148-.295.148-.148.148-.296.148-.147 0-.295.148-.442.148-.59.148h-.295l.148-.148c.147-.148.147-.295.295-.443s.147-.295.295-.443l.147-.148c0-.148.148-.148.148-.295.295-.59.738-1.18 1.328-2.066.442-.885 1.033-1.918 1.623-2.951 1.033-2.213 1.623-4.131 1.77-4.869v-.148s0 .148-.147.295c-.295 1.033-1.328 4.426-3.984 7.672-.443.443-.738.885-1.328 1.328l-.295.295s-.147 0-.147.148l-.295.295c-.148.147-.296.295-.443.295l-.148.148c-.147 0-.147.148-.147.148-.59.443-1.033.59-1.181.738-.59.148-1.032.295-1.327.295 0 0 0-.148.147-.148l.148-.148c.295-.443.737-1.033 1.032-1.476 0-.148.148-.148.148-.295s.148-.148.148-.295l.147-.148c.148-.148.148-.295.295-.443 0-.59.148-.738.148-.885zm7.229-12.984l2.361-2.951s1.623-2.066 3.099-2.951c.295-.148.59-.295.737-.295.443-.148.886-.148 1.033-.148h.443c.442.148.885.443 1.18.738.148.148.148.295.295.443 0 .148.148.295.295.59 0 .148.148.148.148.295l.147.148c.295.443.738.885 1.328 1.328.148.147.59.443 1.181.59h.147c.738.295 1.476.148 2.066-.443l.442-.443c.296-.443.443-.885.443-1.475 0-.295 0-.59-.147-.738 0 .295 0 .59-.148.738v-.443-.295c0-.295-.148-.738-.295-1.033 0 0 0-.148-.148-.148-.147-.148-.147-.295-.295-.295l-.147-.148c-.148 0-.148-.148-.295-.148v-.295c-.295 0-.295.148-.295.148-.296-.295-.591-.148-.591-.148s.148 0 .148-.148h.443.147c.148 0 .295 0 .443-.148h-.443s-.295 0-.295-.148h-.295c-.295 0-.443.148-.443.295v.148c-.147-.148-.442 0-.442 0 0-.148.147-.295.147-.295.295-.59.738-.738.738-.738v.148c0 .148.147.148.295.148 0-.148-.148-.148-.148-.295s0-.148.148-.295c0 0 .148 0 .148-.148l.295-.148v.295c0-.295.147-.443.147-.443.148-.148.443-.295.885-.443h.296.147.443.59.147.148c.148 0 .295 0 .443.148.147 0 .295.148.442.148.295.148.443.295.738.59 0 0 0 .148.148.148 0 0 0 .148.147.148 0 0 0 .148.148.148 0 0 .147.148.147.295s.148.148.148.295v.148c-.295-.295-.738-.59-.738-.59l.443.443c.147.148.147.295.295.443 0 0 0 .148.147.148l.148.148s0 .148.147.148c0 .148.148.148.148.295v.148.148l-.148-.148h-.442l-.295-.295s0 .148.147.148v.148s0 .148.148.148c.147.295.295.443.442.738s.295.59.443.738c.295.738.295.738.443.885 0 .148.147.295.147.443s.148.148.148.295c.147.295.442.443.737.738s.591.295 1.033.295.738-.148 1.181-.443c.295-.148.442-.295.59-.295 1.18-.885 1.623-1.918 1.918-2.361.295-.59.738-1.18 1.475-1.18h.443c.148 0 .59 0 1.033.148.147 0 .442.148.738.295 1.327.738 2.655 2.361 2.95 2.803l.443.443 1.328 1.771.148.295.59.738 1.918 2.656c-.443 0-1.033-.148-1.623-.443s-1.033-.738-1.328-1.033c0 0-.443-.443-1.033-1.328-.147-.148-.147-.295-.295-.443s-.295-.443-.443-.59c1.033 1.771 1.771 2.951 2.214 3.541l.147.148v.148s0 .148.148.148l.147.148c-.295 0-.59-.148-.885-.148-.885-.295-1.771-.885-2.361-1.623-.147-.148-.295-.295-.295-.443 0 0-.147-.147-.147-.295-.148-.148-.296-.295-.443-.59 0-.148-.148-.148-.148-.295s-.147-.147-.147-.295c-.148-.148-.295-.443-.443-.59s-.295-.443-.442-.59-.296-.443-.443-.738-.295-.443-.295-.738c.885 2.066 1.623 3.394 2.065 4.279s.738 1.18.738 1.18c-.885-.147-1.77-.59-2.361-1.18-.147 0-.147-.148-.295-.295l-.295-.295-.737-.738c-.296-.295-.886-1.033-1.771-1.918l.443.885c.147.148.147.295.295.443.147.295.295.443.442.738.295.295.443.59.738.885-.295 0-.59-.148-.738-.148-.885-.295-1.475-.738-2.213-1.328.148.148.148.295.295.443v.148c.148.148.295.443.443.59.295.443.443.59.59.738h-.147c-1.033 0-2.066-.295-2.804-.885l.148.148s0 .148.147.148c0 .148.148.295.295.443 0 .148.148.148.148.295.295.443.59.738 1.033 1.18 0 0-.443.443-1.328.295 0 .148-.148.295 0 .443v.148c0 .147 0 .147.147.147v.148h-.147-.148-.295c0 .148 0 .443-.147.738-.148.148-.148.295-.295.443v-.443-.148-.148l-.148-.147c0 .295-.148.738-.295 1.328 0 .148-.148.295-.148.443s-.147.148-.147.295v.295.148.738.295s0 .148.147.295c0 .148.148.295.148.443.147.295.295.59.295.885v.148c.295.885.443 1.771.443 2.656.147.738.147.885.147 1.033-.147 0-.295-.148-.442-.295l-.296-.295c0-.148-.147-.148-.147-.295 0 .148.147.443.295.738v.148c.148.148.295.443.443.443v1.476 1.328l-.295-.443-.591-.59-.147.885-.443-.738v.295l-.147.148-.148.295-.295-1.033c-.148-.443-.295-.885-.443-1.18 0-.148-.147-.295-.147-.59 0-.148-.148-.59-.148-1.033v-.738s-.147.443-.147 1.475c-.148 0-.148-.148-.295-.295l-.148-.148c-.147-.148-.147-.443-.295-.59 0 0-.148.295 0 .738 0 0-.885-.295-1.623.738l-.148.148-.147-.148c-.885-1.033-1.623-.738-1.623-.738.147-.148.147-.295.147-.443v-.148c0 .148-.147.443-.442.738l-.295.295c0-1.033-.148-1.475-.148-1.475v.738c0 .443-.147.738-.147 1.033s-.148.443-.148.59c-.147.295-.295.738-.443 1.18l-.295 1.033-.147-.295-.148-.148v-.295l-.442.738-.148-.885-.59.59-.295.443V28.64v-1.475c.147-.148.295-.295.442-.59s.296-.59.296-.738c0 .148-.148.295-.443.443-.148.148-.295.295-.443.295 0 0 .148-.148.148-1.033l.442-2.656v-.148c.148-.295.148-.59.296-.885 0-.148.147-.295.147-.443s.148-.295.148-.295v-.295-.738-.148-.295c0-.148 0-.295-.148-.295 0-.148-.147-.295-.147-.443-.148-.59-.296-1.033-.296-1.328 0 0-.147 0-.147.147l-.148.148v.443l-.147-.148c0-.148-.148-.148-.148-.295-.147-.295-.147-.59-.147-.738h-.295-.148-.147c0-.147.147-.147.147-.295v-.148-.443c-.885.148-1.328-.295-1.328-.295.885-.738 1.623-2.066 1.623-2.066-.885.59-1.77.885-2.803.885h-.148L160.955 13c-.59.59-1.328 1.033-2.213 1.328-.295.147-.443.147-.738.147.295-.295.443-.59.738-.885.59-.738 1.033-1.475 1.328-2.213-.885.885-1.476 1.623-1.771 1.918l-.737.738-.295.295-.296.295c-.737.59-1.475 1.033-2.508 1.18 0 0 .295-.295.738-1.18s1.18-2.213 2.066-4.279c0 .148-.148.295-.148.295-.885 1.771-2.066 3.246-2.656 3.984s-1.328 1.328-2.361 1.623c-.295.148-.59.148-.885.148 0 0 .885-1.033 2.508-3.984-1.032 1.623-1.77 2.361-1.77 2.361-.295.295-.738.738-1.328 1.033-.295.148-.59.295-.885.295-.295.148-.59.148-.886.148l1.328-2.656zm38.215 16.525l.59-.59c.147.148.295.148.59.295l-.738.738-.442-.443zm-1.328-1.771c.442.443.885.738 1.18 1.033l-.295.295-.295-.443c-.148-.295-.295-.59-.59-.885zm1.032 2.066l.443.295-6.492 6.049c-.147-.148-.147-.295-.295-.443m.443 2.213c-.148.148-.148.148-.148 0 0 0-.147 0-.295-.148l-.147-.148c-.148 0-.148-.148-.296-.148-.147-.148-.295-.295-.442-.295-.148-.147-.295-.295-.443-.295l-.147-.148v-.148c0-.148-.148-.148-.148-.295-1.623-1.918-1.77-2.803-1.77-2.803v-.148h.147s1.328.148 2.508 1.623c.148.148.148.148.148.295s.147.148.147.295.148.148.148.295c.148.148.148.295.295.443s.148.443.295.59v.295.295c.148.295.148.295.148.443zm.59 2.066c-.885-.59-1.476-1.033-2.066-1.18l.886-.738c.147.148.295.148.295.148h.147c.443.59.738 1.328 1.033 2.066l-.295-.295zm.885 1.77c-.442 0-1.328-.148-2.508-.885-.148-.148-.295-.148-.443-.295l-.737-.738s0-.148-.148-.148c0-.148-.148-.148-.148-.148s0-.148-.147-.148v-.148c0-.148-.148-.295-.148-.295v-.148h.148s.147 0 .295.148c.148 0 .148.148.295.148s.148 0 .295.148c.443.295 1.181.59 2.066 1.18.295.148.59.443.885.738 0 .148.148.148.148.295.147 0 .147.148.147.295zm1.476 4.574c-.443-.148-1.328-.443-2.214-1.18l-.59-.59c-.295-.443-.442-.738-.59-1.033 0-.148-.147-.295-.147-.443-.148-.295-.148-.443-.148-.443V43.1c.148.148 1.033.443 2.803 2.066l.295.295c.148.443.148.738.296 1.18.295.148.295.148.295.295zm.59 3.099c-1.771-2.066-2.508-2.508-2.656-2.508h-.148l-.442-1.77.147.148c1.033.885 1.918 1.18 2.509 1.328.295.885.442 1.771.59 2.803zm0-3.099c-.148-.295-.148-.59-.295-1.033 0-.295.147-.59.295-.885 1.033-2.508 1.623-3.098 1.623-3.098h.147.148s.442 1.18-.295 2.803c-.295.59-.59 1.033-.738 1.475l-.59.59c-.148 0-.295 0-.295.148zm-1.771 3.394c-.295-.295-.442-.59-.59-.738-.59-.885-.59-1.77-.59-1.77v-.148c.147.148.885.59 2.361 2.361.147.148.147.295.295.443 0 .443.147.885.147 1.328-.147-.148-.885-.443-1.623-1.475zm1.771 4.574c-1.328-2.213-1.918-2.803-1.918-2.803h-.148c0-.59-.147-1.18-.147-1.918l.295.295c.885 1.033 1.623 1.475 2.213 1.623v1.918 1.328c-.148-.148-.148-.295-.295-.443zm0 6.344c.147-.443.442-.738.59-1.033 1.623-2.066 2.361-2.508 2.361-2.508v.148s.147 1.328-1.033 2.656c-1.033 1.328-2.066 1.77-2.361 1.77.295-.443.295-.738.443-1.033zm-2.066-4.574l-.147-.148c0-.443 0-1.033.147-1.475.738 1.328 1.771 1.918 2.066 2.066l-.443 2.803v-.148c-.885-2.508-1.475-3.099-1.623-3.099zm-.295-3.836v-.443-.147c.148.147.738.59 1.918 2.656l.443.885v1.033c-.295-.148-1.181-.738-1.918-1.918-.148-.148-.148-.295-.295-.59-.148-.443-.296-.738-.296-1.033.148-.148.148-.295.148-.443zm.148 6.935c-.148-.295-.148-.443-.148-.59-.147-.443-.148-.738-.148-1.033s.001-.59.148-.738c0-.147.148-.295.148-.295h.147.148c.147.148.737.885 1.475 3.099 0 .148 0 .148.148.295 0 .148.147.295.147.443-.147.443-.147.738-.295 1.18-.738-.443-1.328-1.18-1.77-2.361zm.442 5.607c0-.148 0-.148 0 0-.442-2.803-1.033-3.541-1.033-3.541l-.147-.148c.147-.59.295-1.328.442-1.918v.148c.591 1.475 1.328 2.213 1.771 2.508-.295.885-.738 1.918-1.033 2.951zm-.147 1.77c0-.147.147-.295.147-.443s.148-.295.148-.295c0-.148.147-.295.147-.59l.148-.147c2.065-1.771 2.803-2.066 2.803-2.066v.148s-.147 1.328-1.475 2.361c-.886.885-1.771 1.033-2.213 1.18h-.148c.295 0 .295-.148.443-.148zm-1.771-2.508c0-.295-.147-.59-.147-.738 0-1.18.442-1.918.442-2.066h.148.147s.443.738 1.033 3.394v.59c0 .148 0 .148-.147.295 0 .147 0 .147-.148.295-.147.295-.295.59-.443.59-.147-.443-.59-1.18-.885-2.361zm-.59 5.312c.148-2.803-.295-3.689-.295-3.689s0-.147-.148-.147l.443-.885c.148-.295.148-.443.295-.738v.295c.295 1.475.738 2.213 1.18 2.656-.295.738-.885 1.623-1.475 2.508zm-.443 1.623c.148-.148.148-.295.295-.295.148-.148.148-.295.296-.443s.295-.148.442-.295c2.361-1.033 3.246-1.033 3.394-1.033h.147v.148s-.59 1.18-2.065 1.918c-.738.295-1.328.443-1.918.443h-.443-.148-.147c0-.147 0-.295.147-.443zm-1.18-2.656c0-.295 0-.59.148-.738.147-.443.295-.885.442-1.18 0-.148.148-.148.148-.295.147-.295.295-.443.295-.443h.147.148c0 .148.295 1.033.295 3.541v.59c-.148.295-.295.443-.443.738l-.295.295c-.59-.443-.885-1.328-.885-2.508zm-1.771 5.164c0-.147 0-.147.148-.295.738-2.656.59-3.541.59-3.541 0-.148 0-.148-.147-.148.295-.443.737-.885 1.032-1.328v.295c0 1.328.296 2.361.591 2.803l-.295.295c-.591.59-1.181 1.328-1.919 1.918zm-.737 1.623c.442-.443.885-.738 1.18-1.18h.148c2.213-.738 3.098-.738 3.393-.738h.148v.148s-.59 1.18-2.213 1.623c-.443.148-.886.295-1.328.295-.738 0-1.181 0-1.328-.148zm-.59-3.098c0-.295.147-.443.147-.59.443-1.18 1.328-1.77 1.328-1.77s.148.885-.59 3.394c-.148.295-.148.59-.295.885l-.59.59c-.148 0-.148.148-.296.148v-.148c.148-.295 0-1.18.296-2.508zm-19.181 2.066c-.148-.295-.295-.59-.295-.885-.738-2.656-.591-3.393-.591-3.393s.886.59 1.328 1.77c.148.148.148.443.148.59.295 1.328.147 2.213.147 2.656v.148l-.295-.295c0-.295-.295-.443-.442-.59zm-.886-.147l1.181 1.18.147.148c-.295 0-.737.147-1.328 0-.442 0-.885-.148-1.328-.295-1.623-.59-2.213-1.623-2.213-1.623v-.148h.148c-.148-.147.738-.147 3.393.738zm-1.623-2.803c.295-.443.591-1.328.591-2.803v-.295c.295.443.59.885 1.032 1.328l-.147.148s-.148.885.59 3.541c0 .147 0 .147.148.295-.591-.59-1.328-1.328-1.771-2.066-.295.147-.443 0-.443-.148zm-1.032-1.328v-.59c0-2.508.147-3.393.295-3.541h.147.148s.147.148.295.443c0 .148.147.148.147.295.148.295.295.738.443 1.18 0 .295.148.443.148.738 0 1.18-.296 2.066-.443 2.508l-.295-.295c-.59-.295-.738-.443-.885-.738zm-.148.885c.148.147.148.295.295.295l.295.295h-.147-.148-.443c-.59 0-1.327-.148-1.918-.443-1.623-.738-2.065-1.77-2.065-1.918v-.148h.147s.886 0 3.394 1.033c.147.148.295.148.59.295-.148.295-.148.443 0 .59zm-1.771-3.984c.443-.443.886-1.18 1.181-2.656v-.295c.147.295.147.443.295.738l.443.885-.148.148c0 .147-.295.885-.295 3.541v.147c-.443-.738-1.033-1.623-1.476-2.508zm-.59-1.328c0-.148 0-.148 0 0v-.59c.443-2.656 1.033-3.394 1.033-3.394h.148.147s.443.738.443 2.066c0 .295 0 .443-.148.738-.147 1.18-.59 1.918-1.033 2.361 0-.147-.147-.295-.442-.59 0 0 0-.147-.148-.147v-.443zm-.442.295c0 .148.147.295.147.295 0 .148.148.295.148.443s.147.147.147.295h-.147c-.443-.148-1.328-.443-2.213-1.18-1.328-1.18-1.476-2.361-1.476-2.361v-.148s.885.295 2.951 2.066l.148.147c.147.148.147.295.295.443zm.885-6.492c.147.443.295 1.18.443 1.77 0 0-.148 0-.148.148s-.59.885-1.033 3.541v.148c-.442-1.033-.738-2.066-1.033-3.099.443-.295 1.181-1.033 1.771-2.508zm-2.066.885c0-.148 0-.295.148-.443 0-.148 0-.148.147-.295.886-2.213 1.328-2.951 1.476-3.098h.147.148s0 .148.147.295c0 .148.148.443.148.738s0 .738-.148 1.18c0 .148-.147.443-.147.59-.443 1.328-1.18 1.918-1.476 2.213-.442-.295-.442-.738-.59-1.18 0 .148 0 .148 0 0zm-.442-3.393c.442-.148 1.328-.738 2.065-2.066 0 .443 0 1.033.148 1.475 0 0-.148 0-.148.148 0 0-.59.738-1.623 3.246v.148c-.295-1.033-.442-2.066-.442-2.951zm0 3.984c0 .295.147.59.295.885-.295 0-1.328-.443-2.361-1.771s-1.033-2.656-1.033-2.656v-.148s.738.443 2.361 2.508c.443.443.59.885.738 1.18zm-.148-5.312c.148-.295.148-.59.295-.885 1.181-2.066 1.771-2.656 1.918-2.656l.148.148v.443.59c0 .295-.148.738-.295 1.033 0 .148-.148.295-.295.59-.738 1.328-1.476 1.77-1.918 1.918.147-.443.147-.738.147-1.18zm2.213-5.312l.295-.295c-.147.59-.147 1.18-.147 1.918h-.148s-.737.59-1.918 2.803c0 .148-.147.295-.147.295v-1.18-1.918c.295-.295 1.18-.738 2.065-1.623zm-2.065-.148c.147-.148.147-.295.295-.443 1.475-1.771 2.213-2.213 2.36-2.361v.148s0 .738-.59 1.77c-.147.295-.295.59-.59.738-.738.885-1.475 1.328-1.918 1.475.295-.295.295-.738.443-1.328zm0-3.541s-.148-.148-.295-.148c-.148-.148-.443-.295-.591-.59-.295-.295-.59-.885-.885-1.475-.738-1.623-.295-2.803-.295-2.803h.148.147s.59.59 1.623 3.098c.148.295.295.738.295 1.033 0 .147 0 .443-.147.885zm2.951-1.033l.147-.148-.443 1.77h-.147c-.148 0-.885.443-2.508 2.508.147-.885.295-1.623.442-2.361v-.295c.59-.148 1.476-.59 2.509-1.476zm-1.919-.59l.148-.148c1.771-1.623 2.656-1.918 2.803-2.066h.148v.148s0 .148-.148.443c0 .148-.147.295-.147.443-.148.295-.295.59-.59 1.033-.148.148-.295.443-.591.59-.885.738-1.623 1.18-2.213 1.18h-.147c0-.148 0-.295.147-.295.148-.295.148-.738.295-1.033.295-.148.295-.148.295-.295zm2.066-4.426c.885-.59 1.623-1.033 2.066-1.18.147 0 .147-.148.295-.148s.147-.148.295-.148.295-.148.295-.148h.148v.148s0 .148-.148.295v.148s0 .148-.148.148l-.147.148s0 .148-.148.148c-.147.295-.442.59-.737.738-.148.148-.295.148-.443.295-1.18.738-2.066.885-2.508.885h-.148c0-.148.148-.295.148-.443s0-.148.147-.295c.443-.148.738-.443 1.033-.59zm.59-1.918h.148s.147-.148.295-.148l.885.738c-.442.295-1.18.59-2.065 1.18-.148.148-.296.148-.296.295.296-.738.591-1.475 1.033-2.066zm-.147-.885v-.295-.295c0-.148.147-.295.295-.59 0-.148.147-.295.295-.443 0-.148.147-.148.147-.295s.148-.148.148-.295.148-.148.148-.295c1.18-1.475 2.508-1.623 2.508-1.623h.147v.148s-.295.738-1.77 2.803c0 .148-.148.148-.148.295l-.147.148-.295.295c-.148.147-.295.295-.443.295s-.148.148-.295.148l-.148.148c-.147.148-.147.148-.295.148h-.147v-.295zm-5.902-7.672l6.344 5.902c-.147.148-.147.295-.295.443l-6.492-6.049.443-.295zm-.295-1.18c.295-.148.738-.59 1.18-1.033-.147.295-.442.59-.59.885l-.295.443-.295-.295zm0 .885l-.295.443-.738-.738c.148 0 .295-.148.59-.295l.443.59zm17.558.443c0 .148 0 .148-.148.295 0 .148-.147.295-.147.443h.295c.59 0 .885-.59 1.18-1.033v.59l-.295.738h.443c.295-.148.442-.295.59-.443 0 0 .147-.147.147-.295v-.148s0-.148.148-.295l-.295 1.475c-.148 0-.443 0-.59.148h-.148c-.147 0-.295 0-.59.148h-.148c-.442-.443-.885-.148-1.18-.443-.148-.148-.148-.443-.148-.738 0 .147.148.295.296.443.147-.443.295-.738.442-1.18l.443-1.328c0-.147.147-.443.295-.59.147-.295.295-.59.443-.738-.296.885-.738 1.918-1.033 2.951zm2.213-3.098c-.148.59-.443 1.033-.59 1.623-.148.295-.148.59-.295.738 0 .148-.148.148-.148.295s-.147.295-.147.443c-.148.295-.296.443-.591.59h-.295c.295-.885.738-1.918 1.033-2.803 0-.148.148-.295.148-.59 0-.148.147-.295.295-.443s.442-.148.59.148c0-.148 0-.148 0 0zm.147 1.918c-.59 2.213-1.327 2.066-1.327 2.066l.59-2.066c.147-.738.442-1.328.59-2.066 0 0 .147 0 .147.148.148 0 .148.147.296.147l-.296 1.771zm1.476-.148c0 .295.147.443.147.738v.148c.148.443.148 1.033.296 1.475 0 0-.591-.148-.738-1.033v-.295c0-.148-.148-1.033-.148-2.213-.147 1.18-.147 2.066-.147 2.213v.148.148c-.148.885-.738 1.033-.738 1.033.148-.443.148-1.033.295-1.475v-.148c0-.295.148-.443.148-.738.147-.59.147-1.18.295-1.623l.295.295c.147-.148.147-.295.295-.295-.148.59 0 1.18 0 1.623zm.885.148c.148.738.443 1.328.59 2.066 0 0-.737.148-1.328-2.066l-.442-1.771s.147-.147.295-.147c0 0 .147 0 .147-.148.296.59.591 1.328.738 2.066zm.738-1.033c.295.885.738 1.918 1.033 2.803h-.295c-.295-.147-.443-.295-.591-.59-.147-.148-.147-.295-.147-.443s-.148-.148-.148-.295c-.147-.295-.147-.59-.295-.738-.147-.59-.442-1.033-.59-1.623v-.148c.148 0 .443-.148.738 0 .147.148.147.295.295.443-.148.295-.148.443 0 .59zm1.77 3.246c-.295.295-.737.148-1.18.443h-.147c-.443-.148-.886-.148-1.328-.295l-.295-1.475c0 .148.147.148.147.295v.148c.148.148.148.295.148.295a2.03 2.03 0 0 0 .59.443c.147.148.442 0 .442 0l-.295-.738v-.59c.148.148.295.443.443.59a1.13 1.13 0 0 0 .738.295h.295c0-.148-.148-.295-.148-.443s0-.148-.147-.295c-.295-1.033-.738-2.213-1.033-3.246.295.148.295.443.443.738.147.148.147.443.295.59l.442 1.328c.148.443.295.738.443 1.18.147-.148.147-.295.295-.443 0 .738 0 .885-.148 1.18zm7.673 6.935l1.033-1.033c.147.148.295.295.442.295l-1.18 1.033c-.148 0-.295-.148-.295-.295zm-4.574-4.426v-.295-.295.148c.147.148.147.295 0 .443zm-.885.59s0-.148.147-.148c0 0 0-.148.148-.295v.148l-.295.295zm-1.476-.295c.148-.148.295-.148.295-.148-.147.148-.295.148-.59.148.148.148.295 0 .295 0zm-4.721-3.984c0 .148 0 .295.147.443.148.295.295.443.443.59.147 0 .147.148.295.148s.148 0 .148.148h-.296-.59-.59-.295-.148s.148 0 .148-.148c.148 0 .148-.148.295-.148.148-.148.295-.443.443-.59v-.443zm-5.017 3.984c0-.148.148-.148.295 0 .148 0 .148.148.295.148-.295 0-.442-.148-.59-.148zm-1.328-.148c.148 0 .148.148.148.148 0 .148 0 .148.147.148-.147.148-.295 0-.295-.295 0 .148 0 .148 0 0zm-.885-.59c0-.148 0-.148 0 0 .148 0 0-.148 0 0 .148.148.148.295 0 .443v-.148-.295zm-4.721 5.312l-1.181-1.033c.148-.148.295-.295.443-.295l1.033 1.033-.295.295zm20.951 13.279c0-.443.295-.885.295-.885v-.148l.59-1.475v-.148h-.147l-5.607.443h-.443-.147l-.59 1.475v-.148c-.295-.59-.591-1.18-.738-1.918v-.295-.295c0-.443-.148-1.033-.148-1.328v-.443-.443c0-1.918.443-3.689 1.328-5.017 1.033-1.918 2.361-3.394 3.689-4.279 0 0 .147-.148 0-.148 0 0-.148-.148-.148 0-3.541 2.213-6.492 4.131-9.295 6.049l-.148-.59-.442-1.623h-.148l-.295 2.951c-.295.148-.59.443-.738.59-.147 0-.147.148-.295.148s-.147.148-.295.148c-.295.148-.59.443-.885.738-.148 0-.148.148-.295.148s-.148.148-.295.148c-2.508 2.066-4.869 4.279-6.787 6.197v.148h.147.148 3.984c.737.885 1.475 1.77 2.36 2.508h-9v-.738-.738-.443c.148-3.098.738-6.049 1.623-8.705.148-.295.148-.443.295-.738.443-1.033.885-2.213 1.476-3.098v-.148c0-.148.147-.148.147-.148 0-.148.148-.148.148-.295.147-.148.147-.295.295-.443s.147-.295.295-.443c0-.148.147-.148.147-.295s.148-.148.148-.295c1.033-1.475 2.361-2.803 3.689-3.836v-.148c.147 0 .147-.148.295-.148.147.295.442.738 1.18.885l-.148-.148c-.147-.148-.442-.295-.442-.443h.295l.147-.148c.296.295.443.295.591.295h.442.148s.147 0 .147-.148v-.148h-.147c-.148 0-.148 0-.295-.148v-.148s0-.148.147-.148c0-.148 0-.295-.147-.295l.147-.148c.148-.148.443-.148.59-.295.148 0 .296-.148.443-.148.295-.148.59-.148.885-.295h.295c.148 0 .296 0 .443-.148h.148.295.295.295.147.296.147.295.443.59.148c.147 0 .295 0 .59.148.147 0 .295 0 .59.147h.147.148c.148 0 .295 0 .295.148.148 0 .148 0 .295.148h.295c.148 0 .295.148.443.148h.295c.148 0 .148.148.295.148-.147.148-.147.295-.147.295s0 .148.147.148v.148c-.147 0-.147.148-.295.148h-.148v.148s.148 0 .148.148h.148.442c.148 0 .295-.148.59-.295 0 0 0 .148.148.148.147.148.295.148.295 0 0 .148-.295.443-.443.443 0 0-.147 0-.147.148.738-.148 1.033-.59 1.18-.885.148 0 .148.148.295.148v.148c1.476 1.033 2.656 2.361 3.689 3.836 0 .148.147.148.147.295s.148.148.148.295c.148.148.148.295.295.443s.148.295.295.443c0 0 0 .148.148.295l.147.148v.148c.59 1.033 1.033 2.066 1.476 3.098 0 .148.147.443.295.59.885 2.656 1.475 5.607 1.623 8.705v.295.738.738h-6.64c.59-.148.738-1.623.738-2.066zm-1.623 2.656l1.033-2.361.442-1.18v-.148h.148v.148c-.148.148-.295.59-.295.885v.147c-.148 1.328-.443 2.213-.885 2.508 0 0-.148 0-.148.148 0-.148-.147-.148-.295-.148zm-13.722-1.771c-.147-.148-.295-.295-.295-.443h.885.886.885.443.442 1.181.737.591 1.18.885.738.59.295c.443 0 .885 0 1.181-.148.442 0 .885-.148 1.18-.148h.443.295c.147 0 .295 0 .59-.147h.295.443c.147 0 .295 0 .295-.148h.147.148v.148l-1.181 2.803h-11.066-.295c-.147 0-.147-.148-.295-.148-.59-.738-1.033-1.328-1.623-1.771zm-2.213-.885h1.18a4.44 4.44 0 0 1 .738 1.033c.443.59 1.033 1.033 1.623 1.623h-.738-.295c-.147 0-.147-.148-.295-.148-.737-.738-1.475-1.623-2.213-2.508zm-1.18-1.771l.885.443c.148 0 .148.148.295.148h.148.147.148.147.148c0 .148.147.295.147.295s0 .148.148.148c0 0 0 .148.147.148v.148h-1.18s0-.148-.147-.148c0 0 0-.148-.148-.148-.443-.295-.59-.59-.885-1.033zm5.459 1.771v.295h-.443-.885l-1.18-.148v-.147h2.508zm-2.951-.295c.885-.148 1.918-.295 2.951-.295v.295h-2.951zm3.541-6.787v.885l-.147 1.328v.885l-.296 3.394c-1.032 0-2.213.148-3.246.148-.147-.148-.147-.295-.295-.443l-.147-.148c-.295 0-.443-.148-.738-.295l-.885-.443c-.148 0-.148-.148-.295-.148h-.148-.147c0 .148.147.295.147.295.148.295.443.738.59 1.033-1.475.148-2.655.148-3.246.295 1.918-1.918 4.132-3.984 6.492-5.902.148 0 .148-.148.295-.148s.148-.148.296-.148c.295-.295.59-.443.885-.738.147 0 .147-.148.295-.148s.147-.148.295-.148c.148-.148.443-.295.59-.443l-.295.885zm.885-1.771v-.59s0-.295-.147-.738l.295 1.18c-.148 0-.148.148-.148.148zm-1.328 8.558v-.295c.591 0 1.328 0 1.919-.148v.295l-1.919.148zm2.066.295v.295h-.885-.443-.442-.296v-.295h2.066zm.443-5.164l.59 2.361.295.59v.148l.295 1.18h-1.623l-.147-.885-.148-.738v-.885l-.148-1.623v-.885l-.295-2.508.148-.148 1.033 3.394zm.147 4.869h-.295v-.295h1.623l.295.885h-.59-.59-.59v-.295h.295c.147 0 .147 0 .147-.148-.147-.148-.295-.148-.295-.148zm4.132.295h-.443-.738-.885-.443l-.295-.885c1.033 0 2.066 0 2.804.148h.147s.148 0 .148-.148l-.295.885zm2.213-.738l.885-.148-.295.59c-.295 0-.59 0-.885.148l.295-.59zm-.295 0l-.295.59c-.296 0-.591 0-.886.148l.295-.59.886-.148zm-.738-.148l.295-.738 2.213-.148-.295.738-2.213.148zm5.312-.738c.147-.148.147-.443.295-.59v-.148h-.148l-2.361.148h-.147l-.443.885-.147.148-.295.738h-.148l.295-.59v-.148l.443-1.033v-.148h-.148l-2.508.148h-.148l-.737 1.918h-.148l.885-2.066 5.755-.443-.443 1.18h-.148c.296.148.296.148.296 0zm-1.771.738l-.295.59h-.443c-.147 0-.295 0-.59.148l.295-.59 1.033-.148zm1.18-.148c-.147.148-.147.148 0 0-.147.148-.147.295-.147.295h-.148-.295-.295l.148-.443.737.148zm-1.918-.148l.295-.738 2.214-.148c0 .148-.148.295-.148.443s-.148.295-.148.295l-2.213.148zm-4.869-3.689v.443c0 .443 0 .885.148 1.328v.295.295c.147.59.295 1.18.59 1.623-.738 0-1.771-.148-2.803-.148l-.295-1.18v-.295l-.296-.59-.295-.885-.295-1.18-1.18-3.836 7.525-5.017c-.738.738-1.476 1.77-2.066 2.951-.885 1.623-1.328 3.541-1.328 5.459.295.443.295.59.295.738zm-5.164-3.689l.148-1.77v.885l.147.738c-.147.148-.147.148-.295.148zm.295.148l.295 2.066v.885l.148 1.623v.885l.147 1.033.148.885h-1.771l.296-3.246v-.885l.147-1.328v-.885l.148-1.18c.295.443.295.295.442.148zm9.148-13.722v-1.328-1.328c-.147-1.18-.147-2.361-.443-3.541v-.148c.443.885 1.181 2.213 2.214 2.951.59.443 1.18.738 1.918 1.033l1.18.295c-.147-.295-.443-.59-.443-1.033 0-.148 0-.148-.147-.295.885.738 1.623 1.033 2.066 1.328.737.443 1.327.443 1.475.59.148 0 .443 0 .738.148-.295-.295-.59-.59-.738-1.033 0-.148-.148-.148-.148-.295a5.02 5.02 0 0 0 2.066 1.18c.59.295 1.18.295 1.623.295l-.443-.885c-.147-.148-.147-.295-.295-.443.886.885 1.918 1.476 3.099 2.066l.442.148-6.049 5.607c0-.148-.147-.148-.147-.295-1.181-1.475-2.656-1.77-2.656-1.77-.148 0-.295 0-.443.148s-.147.295-.147.443c0 0 .295.885 1.918 2.951l-1.033 1.033c-1.181-1.476-2.361-2.803-3.836-3.836 0 0 0-.148.147-.295.148-.443 0-1.033-.295-1.18-.147-.148-.443-.148-.738-.148l-.442-.443c-.148-.295-.443-.738-.59-1.18v-.148c.147.295.442.443.59.738l-.443-1.328zm-1.77.59v-.148l.442.738.295-1.033c.148.59.295 1.033.59 1.475v.148c.148.148.296.443.443.59.295.148.59.295.885.295.148 0 .148 0 .148.148v.295h-.148c-.147 0-.147.295-.147.59v.148h-.148l-.147-.148v-.148-.148c0-.148 0-.295-.148-.295-.147-.148-.147-.148-.295-.148h-.147c-.148 0-.148-.148-.296-.148-.295-.295-.295-.59-.295-.885v-.148h-.147s-.148 0-.148.148c0 .443.148.885.443 1.033l.295.295h.148c.147 0 .147.148.295.148 0 0 0 .148.147.148v.295.148h-.147l-.148.148h-.147c-.148 0-.148 0-.148-.148v-.148-.295-.148c0-.148-.148-.148-.295-.295-.148 0-.148-.148-.148-.148v-.148c-.147-.148-.147-.443-.295-.738 0 0 0-.148-.147-.148v.148c0 .148.147.295.147.443s.148.295.148.443.147.148.147.148l.295.295v.295l-.147.148-.148.148h-.295v-.148-.148s0-.148.148-.148h.147s0-.148.148-.148v-.148-.148c-.148-.148-.295-.148-.295-.295l-.148-.148h-.147-.148c-.295-.147-.738-.295-1.033-.295v-.148c.148-.148.295-.148.443-.148.295 0 .59 0 .738-.295-.443-.443-.443-.885-.59-1.18zm-8.558 1.033c.147.295.443.295.738.295.147 0 .295 0 .442.148-.442.148-.737.148-1.18.295h-.148c-.147.148-.442.295-.59.443l-.147.148-.148.148s0 .148.148.148h.147l.148.148v.148h-.295c-.148 0-.148-.148-.148-.148l-.147-.148v-.148-.148c0-.148.147-.148.295-.295.147 0 .147-.147.295-.295s.147-.295.147-.443.148-.295.148-.443v-.148s-.148 0-.148.148c0 .295-.147.443-.295.59v.148l-.147.148-.295.295v.148.295.148.148l-.148.148h-.148c0-.148-.147-.148-.147-.148h-.148v-.148-.295c0-.148 0-.148.148-.148 0 0 .147-.148.295-.148h.148a.32.32 0 0 0 .295-.295c.295-.295.442-.59.442-1.033 0 0 0-.148-.147-.148h-.148v.148c0 .295 0 .59-.295.885-.147.148-.147.148-.295.148h-.148c-.147 0-.295.148-.295.148-.147.147-.147.295-.147.295v.148s0 .148-.148.148h-.147v-.148c0-.295 0-.443-.148-.59h-.147v-.295c0-.148.147-.148.147-.148.295 0 .59-.148.885-.295.148-.148.296-.443.443-.59v-.147c.295-.443.443-1.033.59-1.476l.295 1.033.443-.738v.148c-.443 1.18-.443 1.476-.295 1.771zm-11.214-2.803c.886-.295 1.623-.885 2.066-1.18 0 0-.147.148-.147.295-.296.295-.443.738-.738 1.033.295 0 .442 0 .738-.148.147 0 .737-.147 1.475-.59.443-.295 1.18-.738 2.066-1.328 0 .148 0 .148-.148.295a7.07 7.07 0 0 1-.443 1.033c.443-.148.738-.295 1.181-.295.738-.295 1.328-.59 1.918-1.033 1.033-.738 1.77-2.066 2.213-2.951v.148c-.295 1.18-.295 2.361-.443 3.541v1.328 1.328 1.328c.148-.295.443-.443.591-.738 0 0 0 .147-.148.147-.147.443-.295.738-.59 1.18l-.443.443c-.295.148-.442 0-.737.148-.296.295-.443.885-.296 1.18 0 .148 0 .148.148.295-1.475 1.033-2.656 2.361-3.836 3.836l-1.033-1.033c1.623-2.066 1.918-2.803 1.918-2.951s0-.295-.147-.443-.296-.148-.443-.148c0 0-1.476.295-2.656 1.771 0 .148-.147.148-.147.295l-6.05-5.607.443-.148c1.18-.59 2.213-1.18 3.098-2.066-.147.148-.147.295-.295.443l-.442.885c.147-.148.737-.148 1.327-.295zm-1.18 13.279c-.295-.295-.885-1.18-1.18-2.508-.295-1.623.295-2.803.295-2.803h.147.148s.443.738 1.033 3.394v.738c-.148.443-.295.738-.443 1.18zm.295.443h0 .148c.59 0 1.623-.295 2.656-1.033-.148.443-.296.738-.591 1.18h-.147c-.148 0-1.033.443-2.951 2.066.443-.59.59-1.475.885-2.213zm21.984 32.017c-.59.443-1.18.885-1.327 1.033l-1.328.885c-.591.295-1.033.59-1.328.885 0 0-.148 0-.148.147v-.443-.885-.147-.295-.59c-.295-2.951-.295-5.902-.442-8.853v-.295c0-.295.147-.59.147-1.033 0-.295 0-.443.148-.59v-.147c1.77 1.918 1.328 7.082 1.328 7.082s0 .148.147.148h.148c2.065-2.508 1.475-4.721.295-6.344 2.065 1.771 2.508 4.721 2.508 4.721s0 .148.148.148c0 0 .147 0 .147-.148 0 0 1.623-3.984-2.361-6.492 1.328.443 3.541 1.18 3.984 3.098l.148.148s.147 0 .147-.148c0 0 .295-1.328-.59-2.656-.738-1.033-2.066-1.77-3.836-2.066.738-.295 2.656-.885 4.279.738h.147s.148-.148 0-.148c0 0-.147-.885-1.18-1.623s-2.656-.738-4.574-.295c.885-.59 2.656-1.771 4.426-1.18h.148v-.148c-.148-.295-1.623-2.213-5.312-.148.148-.59.443-1.77 2.066-2.361l.147-.148s0-.148-.147-.148c0 0-2.361-.443-3.246 1.918-.885-2.361-3.246-1.918-3.246-1.918s-.148 0-.148.148c0 0 0 .148.148.148 1.623.59 1.918 1.77 2.065 2.361-3.688-2.066-5.164-.148-5.311.148v.148h.147c1.771-.738 3.689.443 4.427 1.18-2.066-.443-3.541-.443-4.574.295-1.033.59-1.181 1.475-1.181 1.623v.148h.148c1.771-1.475 3.541-1.033 4.279-.738-1.771.295-3.099 1.033-3.836 2.066-.886 1.328-.591 2.508-.591 2.656 0 0 0 .148.148.148 0 0 .148 0 .148-.148.442-1.77 2.655-2.656 3.983-3.098-3.983 2.361-2.36 6.344-2.36 6.492l.147.148s.148 0 .148-.148c0 0 .442-3.098 2.508-4.721-1.033 1.623-1.623 3.836.295 6.344h.148l.147-.148s-.443-5.164 1.328-7.082a1.6 1.6 0 0 0 .148.738c0 .295.147.59.147 1.033v.295c-.147 2.951-.147 5.902-.443 8.853v.59.295.147.885.295s-.147 0-.147-.148c-.443-.295-.885-.443-1.328-.885l-1.328-.885c-.443-.295-.885-.59-1.328-1.033-1.77-1.328-3.246-2.803-4.574-4.426a162.61 162.61 0 0 1-2.36-3.246c-.148-.148-.148-.295-.296-.443-.295-.443-.442-1.033-.737-1.476-.886-2.213-1.476-4.574-1.918-7.082 0-.295 0-.59-.148-.738 0-.59-.147-1.18-.147-1.77h30.984c0 .59 0 1.18-.148 1.77 0 .148-.147.443-.147.738-.295 2.508-.885 4.869-1.918 7.082-.148.443-.443 1.033-.738 1.476-.147.147-.147.295-.295.443-.59 1.033-1.328 2.213-2.361 3.246-1.328 1.771-2.803 3.246-4.574 4.574zm.443 3.836c.295-.148.59-.148.885-.148 1.328-.148 2.066-.295 2.656-.295h.885l.148.147v.148s-.885 1.033-2.508 1.18c-.443 0-.886.148-1.328 0-.885 0-1.328-.295-1.623-.443.147 0 .442-.295.885-.59zm-.885-2.508c.147-.295.147-.443.295-.59.738-1.033 1.475-1.475 1.623-1.475 0 0 0 .885-1.18 3.246-.148.295-.443.59-.591.885-.295.147-.59.443-.885.59.148-.147 0-1.18.738-2.656zm-5.607-8.115l.295 1.475s0 .148.148.148c0 0 .147 0 .147-.148l.295-1.475c.148 2.508.148 5.017.443 7.525v.295.148.147.295.148.885.443c-.295.148-.443.148-.738.148h-.442c-.295 0-.591 0-.738-.148v-.148-.443-.885-.147-.295-.59c.443-2.361.443-4.869.59-7.377zm-2.213 3.246c-1.918-2.656-.738-4.869.443-6.344v-.148h-.148c-2.213 1.18-2.951 3.836-3.246 5.017-.295-1.18-.59-4.279 3.394-6.049l.147-.147-.147-.148c-.148 0-3.837.59-5.017 2.803a3.15 3.15 0 0 1 .59-1.77c.738-1.033 2.066-1.771 3.984-2.066 0 0 .147 0 .147-.147v-.148s-2.36-1.328-4.721.295c.148-.295.443-.59.885-.885 1.033-.738 2.804-.738 5.017-.148h.147V61.1c-.147-.148-2.213-2.213-4.721-1.771.59-.59 2.066-1.328 4.869.443h.147v-.148s-.147-1.77-1.77-2.656c.738 0 2.066.443 2.508 2.213 0 0 0 .148.148.148 0 0 .147 0 .147-.148.443-1.771 1.771-2.213 2.509-2.213-1.623.885-1.771 2.656-1.771 2.656v.148h.148c2.803-1.623 4.278-1.033 4.869-.443-2.361-.59-4.574 1.623-4.722 1.771v.148s.148.148.148 0c2.213-.59 3.836-.59 5.016.148.443.295.738.59.885.885-2.213-1.623-4.573-.295-4.573-.295s-.148.148 0 .148c0 0 0 .147.147.147 1.918.295 3.246.885 3.984 2.066a3.15 3.15 0 0 1 .59 1.77c-1.18-2.213-4.869-2.803-5.017-2.803 0 0-.147 0-.147.148 0 0 0 .147.147.147 3.984 1.771 3.689 4.869 3.394 6.049-.295-1.18-1.033-3.689-3.246-5.017h-.148v.148c1.328 1.475 2.361 3.689.443 6.344 0-1.328.148-5.459-1.623-7.082h-.147s-.148 0-.148.148v.295.148.59c0 .148 0 .443-.148.59 0 .148 0 .295-.147.443 0 .148 0 .295-.148.443v.295c0 .147 0 .295-.147.738l-.148.885-.295-1.623v-.295-.295c0-.148 0-.295-.147-.443 0-.148 0-.295-.148-.59v-.59-.148-.295s0-.148-.147-.148h-.148c-2.066 1.475-2.066 5.459-1.918 6.935zm-2.361 8.115c-.147.148-.738.295-1.623.443h-1.328c-1.77-.295-2.508-1.18-2.508-1.18v-.148l.148-.148s.885-.147 3.541.148c.295 0 .59.148.885.148.147.295.59.59.885.738zm-.442-1.033c-.148-.295-.443-.59-.591-.885-1.18-2.361-1.18-3.246-1.18-3.246s.885.443 1.623 1.475c.148.148.295.443.295.59.59 1.328.59 2.361.443 2.803-.148-.295-.295-.443-.59-.738zm-3.542-5.607c.443.443 1.033.885 1.476 1.328 0 0-.148.147 0 .147 0 .148 0 .885 1.18 3.394 0 .147.148.147.148.295-.443-.295-.738-.59-1.033-.885-.59-.443-1.033-.885-1.623-1.328.148-.443.295-1.475-.148-2.951zm13.427 6.344c-.59.295-1.033.59-1.475.885a5.32 5.32 0 0 1-5.902 0c-.443-.295-.885-.59-1.476-.885.148-.295.295-1.475-.442-2.951v-.147c.147.147.295.147.442.295l1.328.885c.59.295 1.033.59 1.328.885.59.295 1.181.59 1.771.59s1.18-.148 1.77-.59l1.328-.885 1.328-.885c.148 0 .148-.148.443-.295v.147c-.738 1.476-.59 2.656-.443 2.951zm4.426-3.394c-.59.443-1.032.885-1.623 1.328-.295.295-.737.59-1.18.885 0-.148.148-.148.148-.295 1.18-2.361 1.18-3.246 1.18-3.394s0-.147-.148-.147c.591-.443 1.033-.885 1.476-1.476-.148 1.623 0 2.803.147 3.099zm7.378-34.526v-.738c.442-2.656 1.033-3.394 1.033-3.394s-.001 0 .147 0h.148s.737 1.18.295 2.803c-.295 1.328-.738 2.066-1.033 2.508a4.4 4.4 0 0 1-.59-1.18zm0 1.623c.295.738.59 1.623.885 2.361-1.918-1.77-2.803-2.066-2.951-2.066h-.147c-.148-.443-.296-.738-.591-1.18 1.033.59 2.066.885 2.804.885zm4.426-22.869c.295.59.885 1.771 1.771 3.099.442.885 1.032 1.771 1.475 2.508.148.148.295.443.295.59s.148.148.148.295.147.148.147.295c.148.148.148.295.295.443s.148.295.295.443l.148.147c0 .148.147.148.147.295s.148.148.148.295a29.3 29.3 0 0 1 1.033 1.476s0 .148.147.148c0 0 0 .148.148.148-.295 0-.738-.148-1.328-.295-.295-.148-.59-.295-1.18-.738l-.295-.295c-.148-.148-.296-.295-.443-.295l-.295-.295s-.148 0-.148-.148l-.295-.295-1.328-1.328c-2.656-3.246-3.688-6.639-3.983-7.672 0-.148-.148-.295-.148-.295v.147c.148.59.738 2.508 1.771 4.869.59 1.033 1.032 2.066 1.623 2.951.442.738.885 1.476 1.327 2.066 0 .148.148.148.148.295l.148.148c.147.147.147.295.295.443s.295.295.295.443l.147.148h-.295c-.147 0-.442-.148-.59-.148s-.148 0-.295-.148c-.148 0-.148-.148-.295-.148s-.148-.148-.295-.148-.148-.148-.295-.148c-.591-.295-1.476-1.033-2.656-2.803-.443-.738-1.033-1.475-1.623-2.656-.59-1.033-1.328-2.508-2.066-4.426.738 2.066 1.623 4.574 2.951 6.935 0 .148.148.295.148.295.59 1.033 1.18 2.066 1.77 2.951-.885-.443-2.213-1.18-3.393-2.361-.295-.295-.59-.738-.886-1.033-.59-.885-1.032-1.771-1.327-2.803-.591-1.476-1.328-3.394-1.919-5.754-.147-.59-.295-1.328-.442-1.918.147.59.295 1.328.442 2.066.591 2.656 1.476 5.459 2.804 8.41.147.148.147.295.295.59.295.738.738 1.476 1.18 2.213-.147 0-.295 0-.59-.148-.443-.148-1.475-.443-2.508-1.771-1.033-1.18-1.623-2.656-2.213-4.721-.295-1.18-.738-2.508-1.181-4.131l1.181 4.869c0 .295.147.738.295 1.18a27.79 27.79 0 0 0 .737 1.918c.591 1.623 1.033 2.066 1.181 2.213l.147.148c-.147-.148-.442-.148-.737-.443-.738-.295-1.623-.885-2.656-2.066-.295-.295-.443-.59-.59-.885v-.148c-.295-.59-.591-1.328-1.033-2.213-.738-2.066-1.476-4.426-1.623-5.016.295 1.033.59 2.213.885 3.393.295.738.443 1.623.738 2.508.147.443.295 1.033.59 1.475.295.885.59 1.623 1.033 2.361-.443-.148-1.033-.443-1.771-.885-1.033-.738-1.475-1.771-2.213-3.394s-.885-2.508-.885-2.508v-.295-.295-.148c0-.295.147-.59.295-.885l.443-.885c.147-.148.147-.295.147-.59.148 0 .148 0 .148-.148 0 0 .147 0 .147-.148l.443-.295-.295-.443s0-.148-.148-.148c.738 0 1.181-.443 1.328-.443l.443-.443-.443-.443-.443-.443c.443.148.886.148 1.328.148h.295 1.033l-.295-.295c.295 0 .443.147.738.147l.885.148c.738.59 1.623 1.033 2.656 1.18l1.328.295-.148-.295c.295.148.738.443 1.033.443.295.148.59.148 1.033.295l1.328.148-.738-.885c.443.148.738.295 1.18.443h.296c.442 1.623 1.032 2.803 1.475 3.541zm19.919-7.377c-.148-.148-.148-.148-.295-.148l-6.345 2.066c-.147 0-.147.147-.147.295l-.296 2.951-8.852 8.263c-.148-.148-.148-.295-.295-.443-.443-.738-.886-1.623-1.476-2.508-.59-1.033-1.18-2.213-1.77-3.099-.443-.738-.886-1.623-1.476-2.803l.59.147-2.508-3.541-2.361-2.951-1.475-1.771-.295-.295-.443-.443-.295-.295c-.147 0-.147-.148-.295-.148 0 0-.147 0-.147-.148-.296-.148-.591-.295-.886-.295-.442-.148-.885-.148-1.18-.148h-.59c-.886.148-1.476.738-1.771 1.623-.147.443-.738 1.475-1.623 2.066 0 0-.295.147-.442.295-.296.147-.591.295-.886.295h-.295-.295c-.443-.295-.738-.738-1.033-1.18-.442-1.033-.885-2.213-1.328-3.246 0 0 0-.148-.147-.148l-.148-.148c-.442-1.033-1.033-1.623-2.213-1.918-.59-.148-1.18-.148-1.77-.148-.148 0-.296 0-.443.148-.59.148-.885.443-1.033.738-.147.148-.59.148-1.328.59-.738.59-.442 1.623-.442 1.623s0-.443.147-.59c.148 0 .295.148.59.148h.295s.295 0 .591.148c0 0 .147 0 .147.148l.148.148.295.295c.147.148.295.295.295.443.295.443.295 1.033.147 1.623-.147.443-.442 1.033-.885 1.18-.443.295-.885.295-1.475.148h-.148c-.59-.148-1.033-.443-1.033-.59-1.033-.738-1.475-1.623-1.623-2.066-.295-.738-1.033-1.475-1.77-1.623h-.59c-.296 0-.738 0-1.181.148-.295.148-.59.148-.885.295-1.476.885-3.099 2.951-3.246 3.098l-2.361 2.951-2.508 3.541.59-.147c-.59 1.18-1.033 2.066-1.475 2.803l-1.771 3.099c-.59.885-1.033 1.771-1.475 2.508-.148.148-.148.295-.295.443l-8.853-8.262-.295-2.951c0-.148-.148-.148-.148-.295l-6.344-2.066c-.148 0-.295 0-.295.148-.148.148-.148.148 0 .295l2.508 6.197c0 .148.148.148.295.148l2.951.147 5.017 4.722c0 2.066-.886 3.541-1.919 5.164-.295.59-.59 1.033-.885 1.623-.147.148-.147.295-.295.59l-.147.295-.148.148c-.59 1.328-1.033 2.656-1.475 4.131-.886 3.099-1.181 6.344-1.181 9.886.148 6.492 2.213 12.836 5.754 18.591 1.476 2.508 3.394 4.721 5.312 6.787 2.656 2.803 5.607 5.164 9 7.082 3.541 2.066 10.328 5.754 15.788 7.525h.295c5.459-1.77 12.246-5.459 15.787-7.525 3.394-1.918 6.492-4.279 9-7.082 1.918-2.066 3.689-4.426 5.312-6.787 3.541-5.754 5.607-12.099 5.754-18.591.148-3.394-.295-6.787-1.18-9.886-.443-1.475-.885-2.951-1.476-4.131l-.147-.148-.148-.295c-.147-.148-.147-.443-.295-.59-.295-.59-.59-1.033-.885-1.623-1.033-1.623-1.918-3.246-1.918-5.164l5.016-4.722 2.951-.147c.148 0 .148-.148.295-.148l2.509-6.197c.147-.148.147-.148 0-.295z" fill="#fff"/><path d="M157.562 8.279c.442.295.885.59 1.18 1.033.59.59 1.328 1.475 2.213 1.623-.442 0-1.033-.443-1.328-.738-.737-.885-.885-2.066-2.065-2.361-.443-.148-.886-.148-1.181 0-.442.148-.885.443-1.328.738.738-.443 1.623-.738 2.509-.295z" fill="#fff"/><path d="M160.66 11.377h-.147c-.296 0-.591-.148-.591-.148-.295-.147-.59-.443-.737-.59.147.148.295.59.59.738h.147c.148 0 .148.148.443.148h.295s.443 0 .738.295c.295.147.59.295.738.59.147.148.147.295.295.443v.443c0 .148-.148.295-.148.443-.147.443-.443.885-.443 1.475 0 .295 0 .59.148.885v.148c0 .148.148.295.148.295.147.295.295.443.147.738v.148l.295.148c.148-.148 0-.59 0-.738-.147-.295-.147-.443-.295-.738-.147-.59 0-1.18.148-1.771l.442-.885c.148-.295.148-.59 0-.885v-.148c0-.148-.147-.148-.147-.295l-.148-.148s-.147 0-.147-.147a1.13 1.13 0 0 0-.738-.295c-.148 0-.295-.148-.443-.148h-.59zm15.787-2.065c.296-.443.738-.738 1.181-1.033.885-.443 1.77-.148 2.508.295-.443-.295-.885-.59-1.328-.738a1.62 1.62 0 0 0-1.18 0c-1.181.295-1.328 1.475-2.066 2.361-.295.295-.738.738-1.328.738.886 0 1.623-.885 2.213-1.623zm-3.688 4.869c.147.59.295 1.18.147 1.771 0 .295-.147.443-.295.738-.147.148-.295.59 0 .738l.148.148v-.148c0-.295 0-.443.147-.738 0-.148.148-.295.148-.295v-.148c.147-.295.147-.59.147-.885a2.49 2.49 0 0 0-.442-1.476c0-.148-.148-.295-.148-.443v-.148-.147V13c0-.148.148-.295.295-.443s.443-.443.738-.59c.443-.147.738-.295.738-.295h.295c.147 0 .295-.147.443-.147h.147c.295-.148.59-.59.59-.738-.147.147-.295.295-.737.59 0 0-.296.148-.591.148h-.147-.148-.295c-.147 0-.295.147-.442.147-.296.148-.443.148-.738.295 0 0-.148 0-.148.148l-.147.147s-.148.148-.148.295v.148a.94.94 0 0 0 0 .885c.148 0 .295.295.443.59zm-2.951 5.606s-.295.148-.148 1.033c0 0 .443-.443.148-1.033z" fill="#fff"/><path d="M169.66 17.279h-.295c-.295 0-.442-.295-.442-.295s.147.147.147.295l.295.295c.148.147.148.443-.295 1.623a2.03 2.03 0 0 0 .443-.59c.59-1.033.59-2.066.59-2.508.148.148 0 1.033-.443 1.18zm-.737 8.41s-.148 0-.295-.148v.738.148c0 .148-.148.148-.148.295h.148s.147 0 .147-.148c0 0 .148-.148.295-.148l.148-.148c.147-.148.295-.443.442-.738s0-.59 0-.885c-.295.738-.59 1.033-.737 1.033zm-.886-5.459c.591-1.033.591-2.066.591-2.508 0 .148-.148.738-.296 1.033l-.147.148c-.148 0-.443-.295-.443-.295.148.148.148.295.148.59.147.738-.148 1.328-.295 1.623.147-.148.295-.443.442-.59z" fill="#fff"/><path d="M168.332 22.443c.148-.295 0-.443 0-.738 0-.148 0-.443.148-.59 0-.148.148-.148.148-.295l-.296.295-.295.295-.147.148a.45.45 0 0 0 0 .59c.147.885-.295 1.475-.295 1.475.147-.148.295-.295.442-.59 0-.148.148-.295.295-.59zm-.295 3.246s.443-.295 0-1.475c-.147-.148-.442.738 0 1.475zm0-9.59v.443l.148-.148c0-.148.147-.443.147-.738s.148-.443.148-.738c0-.148 0-.443-.148-.59 0-.148-.147-.148-.147-.295l-.148-.148c-.147.295-.147.59-.147.738 0 .443.147.738.147.885v.59zm.886-7.23l.147.148c.148 0 .295.148.443.443v-.148-.148c0-.295-.295-.59-.738-.59 0 0 .148.148.148.295zm.147 4.426c.148.295.443.885.443 1.476v.738s.147-.147.295-.147a2.01 2.01 0 0 0 .295-1.771c0-.148 0-.295-.148-.443v.295c0 .148 0 .295-.147.295-.148.148-.295 0-.738-.443z" fill="#fff"/><path d="M168.332 10.492s0 .295.296.738c.147.148.295.295.295.443.147.295.147.443.147.443v-.443-.443c0-.147-.147-.59-.738-.738.148.147.148 0 0 0zm0-3.984h.296s-.148-.443-.591-.59c0 0 .148.148.148.295s-.148.148-.295.148c0 0 .295.148.442.148zm1.181 18.001s.295.443.147 1.18c0 0 .443-.443.591-1.18a3.22 3.22 0 0 0 .147.885s0-.885.59-1.475c.443-.59.443-1.328.443-1.328.147.295.738.148.738.148-.738-1.033-.738-1.623-.738-1.77 0 0-.148.295-.148.738 0 .738-.442 1.18-.442 1.18 0-.443-.295-.885-.295-.885s.147.443-.148 1.328c0 .148 0 .295-.147.443v.295c-.148.295-.296.738-.738.443zm.442-3.246c0 .148-.147.885-.442.885-.148 0-.295-.295-.295-.59 0 .295.147.59 0 1.033 0 .59-.295.885-.443 1.18.295-.295.738-.885 1.033-1.771.147-.295.147-.59.147-.738zm-3.541 3.541s.443-1.476-.59-1.771c0 0-.147.148.295.885.295.443.295.885.295.885zm-3.098-10.623c.147 0 .295-.148.443-.148.442-.148.737-.443.737-.885 0 0-.295.738-.59.59h-.147c-.148-.148-.148-.148 0-.295 0-.148.147-.148.147-.148l-.147.148-.296.295c-.147 0-.147.295-.147.443zm.443 3.688v-.443-.148c.147-.443.295-.59.442-1.033v-.148-.443-.295s0 .295-.295.443l-.147.148c-.148 0-.148.148-.296.148-.147.148-.147.295-.147.295 0-.148-.148-.295-.148-.59v-.59-.148c0-.148 0-.148.148-.148l-.148.148s0 .148-.147.148c0 .148-.148.148-.148.295s-.147.295-.147.443v.295c0 .443.147.738.442 1.18.443.148.443.295.591.443zm.737 1.476c0 .295.148.59.295.885v-.295-.59c0-.443 0-.885-.147-1.328 0 0-.295.443-.148 1.328zm.59 1.623c0-.148-.147-.148-.147-.148v.148c-.148.443.147.885.147.885.148-.443 0-.738 0-.885z" fill="#fff"/><path d="M163.759 18.902c0 .148.147.148.147.148.148-.295.148-.443.148-.59s0-.295-.148-.295l-.147-.148c-.148.148-.148.295-.148.443.148.295.148.443.148.443zm3.098 7.968c-.148-.148-.148-.295-.295-.443v-.148c-.148-.295 0-.59 0-.738-.148.148-.295.148-.295.148-.295 0-.443-.295-.443-.885v.885c.148.295.295.59.443.738 0 0 .147 0 .147.148.148 0 .148.148.295.148 0 0 0 .148.148.148zm-2.213-4.722s-.148.295-.295.885c0 0-.443-.443-.443-1.18 0-.443 0-.59-.147-.738 0 .148 0 .738-.738 1.771 0 0 .59.148.738-.148 0 0 0 .738.442 1.328s.59 1.476.59 1.476.148-.443.148-.885c.147.738.59 1.18.59 1.18-.147-.738.148-1.18.148-1.18-.443.148-.591-.148-.738-.443v-.295c0-.148 0-.295-.148-.443-.147-.885-.147-1.328-.147-1.328zm1.77-1.918c0 .148-.147.59-.295.59-.295 0-.442-.738-.442-.885v.885.295c.147.738.737 1.328.885 1.475a4.99 4.99 0 0 1-.443-1.18v-.295c.295-.443.295-.738.295-.885zm-.885-15.345c.148 0 .295.295.295.295-.295-.148-.59 0-.59 0 0-.148 0-.295.295-.295zm-.443.885h0c.148 0 .148.148.148.148h.148.147V5.77v-.295h.148.147.148.147.148-.148-.147-.148-.147-.148-.147-.148-.148-.147-.148-.442s-.148 0-.148.148v.148.148h.148v-.148.148.148l.737-.295c-.147-.148-.147-.148 0 0 0-.148 0-.148 0 0zm5.755 7.82c.147.148.442.295.59.443h.295c0-.148 0-.295-.148-.59v-.148-.147c-.147.147-.147 0-.295 0 0 0 .295.443 0 .59-.147 0-.295-.148-.442-.148 0-.148-.148-.295-.148-.295 0-.147-.147-.147-.147-.147v.147c.147 0 .147.148.295.295z" fill="#fff"/><path d="M166.119 13.295c-.295.295-.442.443-.59.443s-.147 0-.147-.148c-.148-.148-.148-.59-.148-.59 0 .148 0 .295-.148.443v.295c0 .295 0 .59.148 1.033 0 .148.148.295.295.443s.148.148.295.148v-.738c-.147-.443.148-1.033.295-1.328zm-.147-6.049v-.295-.148.148l-.295.295h-.148c-.295 0-.443-.295-.443-.443 0 .148 0 .295.148.443s.295.295.295.443c.148.148.295-.148.443-.443zm-.295 3.394c-.148.295-.295.443-.443.443 0 0-.148 0-.148.147-.147.148-.147.148-.147.295.738 0 .738-.885.738-.885zm5.164 7.819c0-.147-.148-.147-.148-.147 0 .147 0 .295-.147.443v.443.59c0 .295 0 .443.147.738.148-.295.148-.443.295-.738v-.885c0-.295-.147-.443-.147-.443zm-3.984-1.475c0 .147-.148.443-.295.443h-.295c-.148-.148-.148-.295-.148-.59 0 0-.147.148-.295.443v.443c0 .443.443 1.033.443 1.18.147-.295.59-.738.738-1.328.147-.738.147-1.328 0-1.771 0 .443-.148.738-.148 1.18zm.59 8.705c-.147.443.148.885.148.885 0-.738-.148-.885-.148-.885z" fill="#fff"/><path d="M166.709 12.115c.148.147.148.147.296.443.147.148.147.443.147.59v.295c.148-.148.148-.295.295-.59v-.148c.148-.443 0-.738 0-1.033 0 .148-.147.443-.147.443h-.591zm5.165 2.951v.148.59c0 .295-.148.443-.148.59v-.148c0-.148-.148-.148-.148-.295l-.147-.148-.295-.59v.295.443.148c.147.59.442.59.442 1.033v.295.148c0-.148.148-.295.296-.443.295-.443.442-.885.442-1.18s-.147-.59-.295-.885c0 .148-.147 0-.147 0 0-.148 0-.148-.148-.295 0 .148 0 .295.148.295zm-21.247-.295c.148 0 .443-.148.443-.295 0 0-.148.148-.443 0-.148 0-.295-.147 0-.59 0 0-.295.295-.443.59v.148c0 .148-.147.148-.147.148h.295.295zm5.607-1.328c0 .148-.148.148-.148.295-.147.295-.295.295-.295.295s.443-.148.738-.295c.147-.148.295-.295.295-.59-.148-.148-.295-.148-.59.295zm2.36-.148c0-.147 0-.147.148-.295l-.295.295c0 .148-.148.295-.148.295h.295a.32.32 0 0 0 .296-.295s-.296.148-.296 0zm2.509.148c-.148.148-.59.443-.59.443h.442c.295 0 .443-.148.59-.443v-.295c0-.148-.442.147-.442.295zm23.459 1.328c.148 0 .295.148.295.148h.296l-.148-.148v-.148c-.148-.295-.443-.59-.443-.59.295.443.148.59 0 .59h-.442c0-.148.147 0 .442.148zm-5.901-1.181c.295.295.737.295.737.295s-.147 0-.295-.295c0 0-.147-.148-.147-.295-.295-.443-.443-.443-.443-.443-.147.443 0 .59.148.738zm-2.066 0h.295s-.147 0-.147-.295c0-.147-.296-.295-.296-.295 0 .148.148.148.148.295s-.443 0-.443 0c.148.148.295.295.443.295zm-2.508-.147c-.148-.148-.59-.443-.59-.443v.295c.147.295.442.443.59.443h.442s-.295-.148-.442-.295zm-26.263 8.41v-.148s-.295.443-.295.59c0 .295-.443.738-.443.738s.147 0 .295-.148c.148-.295.59-.59.443-1.033zm-.886 5.902c-.295 0-.295-.295-.147-.59l-.148.148c-.147.148-.295.295-.295.443-.147.295-.147.443-.295.443 0 0 .59 0 1.033-.295.147 0 .147-.148.295-.295h-.148c0 .148-.147.148-.295.148zm6.787-1.181c-.147 0-.147.148-.442.295-.148.295-.295.443-.443.443 0 0 .443 0 .738-.295.147-.148.295-.295.147-.443h0zm3.099-.442c-.148 0-.295 0-.148-.295v-.148l-.147.148c0 .148-.148.295-.148.443 0 .295 0 .295-.147.443 0 0 .59-.148.885-.59h-.148c0-.148-.147 0-.147 0zm31.132-3.394c.147.148.295.148.295.148s-.443-.443-.443-.738-.295-.59-.295-.59v.148c-.295.59.148.885.443 1.033zm0 5.164c.443.295 1.033.295 1.033.295s-.148-.147-.295-.443c0-.148-.148-.443-.295-.443l-.148-.148c.295.443.148.59 0 .59h-.148-.295-.147c.147 0 .295 0 .295.148zm-5.607-.59c-.147 0-.295-.148-.59-.443-.147-.295-.295-.295-.443-.295 0 .148.148.443.148.443.295.295.885.295.885.295zm-3.393-.738s-.148-.148-.148-.443c0-.148 0-.295-.147-.443 0-.148-.148-.148-.148-.148v.148c0 .295 0 .443-.147.295-.148 0-.148 0-.296-.148h-.147c.295.59 1.033.738 1.033.738z" fill="#fff"/></g></g><defs><clipPath id="B"><path fill="#fff" d="M0 0h212.459v90H0z"/></clipPath></defs></svg>