<svg version="1.2" xmlns="http://www.w3.org/2000/svg" viewBox="0 0 254 61" width="254" height="61">
	<title>CDA 35x45 logo 2</title>
	<style>
		.s0 { fill: #a2a467 } 
		.s1 { fill: #ee3e42 } 
		.s2 { fill: #221e1f } 
	</style>
	<g id="Layer 1">
		<filter id="f0">
			<feFlood flood-color="#ffffff" flood-opacity="1" />
			<feBlend mode="normal" in2="SourceGraphic"/>
			<feComposite in2="SourceAlpha" operator="in" />
		</filter>
		<g id="&lt;Group&gt;" filter="url(#f0)">
			<path id="&lt;Compound Path&gt;" fill-rule="evenodd" class="s0" d="m241.4 29.4c0 12.5-10.2 22.7-22.7 22.7-4.5 0-8.7-1.3-12.2-3.5 0.7-0.4 1.2-1 1.6-1.7q1.6 0.5 3.4 0.5c6.1 0 11.2-5 11.2-11.2 0-6.2-5.1-11.2-11.2-11.2-6.2 0-11.3 5-11.3 11.2 0 2 0.5 3.8 1.4 5.4q-0.7 0.6-1.1 1.4c-2.8-3.8-4.6-8.5-4.6-13.6 0-12.6 10.2-22.7 22.8-22.7 12.5 0 22.7 10.1 22.7 22.7zm-1.2 0c0-5.7-2.3-11.1-6.3-15.2-4.1-4-9.5-6.3-15.2-6.3-5.7 0-11.1 2.3-15.2 6.3-2.3 2.3-4 5.1-5.1 8.1 3.5-5.7 9.7-9.5 16.9-9.5 10.9 0 19.7 8.9 19.7 19.8 0 5.3-2 10.3-5.7 14q-2.1 2-4.6 3.4c3.4-1 6.6-2.8 9.2-5.4 4-4.1 6.3-9.5 6.3-15.2zm-19.3 19.1c2.3-0.9 4.5-2.2 6.3-4 3.1-3.2 4.9-7.4 4.9-11.9 0-9.3-7.6-16.8-16.8-16.8-7 0-13 4.3-15.6 10.4 2.9-3.3 7.1-5.4 11.8-5.4 8.5 0 15.4 6.9 15.4 15.4 0 5-2.4 9.4-6 12.3z"/>
			<path id="&lt;Path&gt;" class="s1" d="m209.3 50.5c-0.1-0.3-2.7-8.3-2.7-8.3 0 0-8-2.6-8.2-2.7-0.3-0.1-0.6 0-0.7 0.3-0.4 0.7-1.1 1.9-1.4 2.3-0.3 0.6-0.1 1.3 0.7 1.6 0.7 0.3 6.1 2.1 6.1 2.1 0 0 1.7 5.3 2 6 0.3 0.8 1 1 1.6 0.7 0.4-0.3 1.6-1 2.3-1.4 0.3-0.1 0.4-0.3 0.3-0.6z"/>
			<path id="&lt;Compound Path&gt;" fill-rule="evenodd" class="s2" d="m86.6 47.2q0.2 0.6 0.1 1.2h-3.9q0 0.7 0.4 1.1 0.3 0.3 0.9 0.3 0.5 0 0.8-0.2 0.2-0.2 0.3-0.3c0.2-0.3 0.5-0.4 0.8-0.2 0.3 0.2 0.4 0.6 0.2 0.9q0 0 0 0-0.2 0.3-0.5 0.5-0.7 0.4-1.6 0.4-0.7 0-1.2-0.2-0.5-0.2-0.9-0.6-0.3-0.4-0.5-0.9-0.2-0.5-0.2-1.2 0-0.6 0.2-1.1 0.2-0.5 0.6-0.9 0.3-0.4 0.8-0.6 0.6-0.2 1.2-0.2 0.7 0 1.2 0.2 0.5 0.3 0.8 0.7 0.4 0.5 0.5 1.1zm-1.4 0.2q-0.1-0.5-0.4-0.8-0.2-0.3-0.8-0.3-0.3 0-0.6 0.1-0.2 0.1-0.3 0.3-0.2 0.2-0.2 0.4-0.1 0.2-0.1 0.3zm12.9-0.2q0.2 0.6 0.1 1.2h-3.9q0 0.7 0.3 1.1 0.4 0.3 1 0.3 0.5 0 0.8-0.2 0.2-0.2 0.3-0.3c0.2-0.3 0.5-0.4 0.8-0.2 0.3 0.2 0.4 0.6 0.2 0.9q0 0 0 0-0.3 0.3-0.5 0.5-0.7 0.4-1.6 0.4-0.7 0-1.2-0.2-0.5-0.2-0.9-0.6-0.3-0.4-0.5-0.9-0.2-0.5-0.2-1.2 0-0.6 0.2-1.1 0.2-0.5 0.5-0.9 0.4-0.4 0.9-0.6 0.5-0.2 1.2-0.2 0.7 0 1.2 0.2 0.5 0.3 0.8 0.7 0.4 0.5 0.5 1.1zm-1.4 0.2q-0.1-0.5-0.4-0.8-0.2-0.3-0.8-0.3-0.3 0-0.6 0.1-0.2 0.1-0.4 0.3-0.1 0.2-0.1 0.4-0.1 0.2-0.1 0.3zm32.7-0.2q0.1 0.6 0.1 1.2h-4q0.1 0.7 0.4 1.1 0.3 0.3 1 0.3 0.4 0 0.8-0.2 0.1-0.2 0.3-0.3c0.1-0.3 0.4-0.4 0.8-0.2 0.3 0.2 0.3 0.6 0.1 0.9q0 0 0 0-0.2 0.3-0.5 0.5-0.6 0.4-1.6 0.4-0.6 0-1.1-0.2-0.6-0.2-0.9-0.6-0.4-0.4-0.6-0.9-0.2-0.5-0.2-1.2 0-0.6 0.2-1.1 0.2-0.5 0.6-0.9 0.4-0.4 0.9-0.6 0.5-0.2 1.1-0.2 0.7 0 1.2 0.2 0.6 0.3 0.9 0.7 0.3 0.5 0.5 1.1zm-1.4 0.2q-0.1-0.5-0.4-0.8-0.3-0.3-0.8-0.3-0.4 0-0.6 0.1-0.3 0.1-0.4 0.3-0.1 0.2-0.2 0.4-0.1 0.2-0.1 0.3z"/>
			<path id="&lt;Path&gt;" class="s2" d="m88.9 50.8l-1.8-5.5h1.5l1.2 3.8 1.2-3.8h0.7 0.8l-1.9 5.5z"/>
			<path id="&lt;Compound Path&gt;" fill-rule="evenodd" class="s2" d="m113.9 48q0 0.6-0.2 1.1-0.1 0.5-0.4 0.9-0.3 0.4-0.7 0.6-0.5 0.2-1.1 0.2-0.5 0-0.9-0.2-0.5-0.2-0.7-0.6v1.9h-0.1c0 0.4-0.3 0.7-0.7 0.7-0.4 0-0.8-0.3-0.8-0.7v-6.6h1.5v0.6q0.3-0.4 0.7-0.6 0.4-0.2 0.9-0.2 0.7 0 1.1 0.2 0.5 0.3 0.8 0.7 0.3 0.4 0.4 0.9 0.2 0.5 0.2 1.1zm-1.5 0q0-0.3-0.1-0.7 0-0.3-0.2-0.5-0.2-0.3-0.4-0.4-0.3-0.2-0.6-0.2-0.4 0-0.6 0.2-0.3 0.1-0.4 0.4-0.2 0.2-0.2 0.5-0.1 0.3-0.1 0.7 0 0.3 0.1 0.6 0 0.3 0.2 0.6 0.1 0.2 0.4 0.4 0.2 0.1 0.6 0.1 0.4 0 0.6-0.1 0.3-0.2 0.4-0.4 0.2-0.3 0.2-0.6 0.1-0.3 0.1-0.6z"/>
			<path id="&lt;Path&gt;" class="s2" d="m99.2 43.1v7c0 0.4 0.3 0.7 0.7 0.7 0.4 0 0.8-0.3 0.8-0.7v-7z"/>
			<path id="&lt;Compound Path&gt;" fill-rule="evenodd" class="s2" d="m19.7 46.9q0.2-0.6 0.6-0.9 0.3-0.4 0.8-0.6 0.6-0.2 1.2-0.2 0.6 0 1.2 0.2 0.5 0.2 0.9 0.6 0.3 0.3 0.5 0.9 0.2 0.5 0.2 1.2 0 0.6-0.2 1.1-0.2 0.6-0.5 0.9-0.4 0.4-0.9 0.6-0.6 0.2-1.2 0.2-0.6 0-1.2-0.2-0.5-0.2-0.8-0.6-0.4-0.3-0.6-0.9-0.2-0.5-0.2-1.1 0-0.7 0.2-1.2zm1.4 1.8q0 0.3 0.2 0.6 0.1 0.2 0.4 0.4 0.2 0.1 0.6 0.1 0.4 0 0.6-0.1 0.3-0.2 0.5-0.4 0.1-0.3 0.2-0.6 0-0.3 0-0.6 0-0.4 0-0.7-0.1-0.3-0.2-0.5-0.2-0.3-0.5-0.4-0.2-0.2-0.6-0.2-0.4 0-0.6 0.2-0.3 0.1-0.4 0.4-0.2 0.2-0.2 0.5-0.1 0.3-0.1 0.7 0 0.3 0.1 0.6z"/>
			<path id="&lt;Compound Path&gt;" fill-rule="evenodd" class="s2" d="m101.9 46.9q0.2-0.6 0.5-0.9 0.4-0.4 0.9-0.6 0.5-0.2 1.2-0.2 0.6 0 1.2 0.2 0.5 0.2 0.8 0.6 0.4 0.3 0.6 0.9 0.2 0.5 0.2 1.2 0 0.6-0.2 1.1-0.2 0.6-0.6 0.9-0.3 0.4-0.8 0.6-0.6 0.2-1.2 0.2-0.7 0-1.2-0.2-0.5-0.2-0.9-0.6-0.3-0.3-0.5-0.9-0.2-0.5-0.2-1.1 0-0.7 0.2-1.2zm1.3 1.8q0.1 0.3 0.2 0.6 0.2 0.2 0.5 0.4 0.2 0.1 0.6 0.1 0.4 0 0.6-0.1 0.3-0.2 0.4-0.4 0.2-0.3 0.3-0.6 0-0.3 0-0.6 0-0.4 0-0.7-0.1-0.3-0.3-0.5-0.1-0.3-0.4-0.4-0.2-0.2-0.6-0.2-0.4 0-0.6 0.2-0.3 0.1-0.5 0.4-0.1 0.2-0.2 0.5 0 0.3 0 0.7 0 0.3 0 0.6z"/>
			<path id="&lt;Compound Path&gt;" fill-rule="evenodd" class="s2" d="m166.1 46.9q0.2-0.6 0.5-0.9 0.4-0.4 0.9-0.6 0.6-0.2 1.2-0.2 0.6 0 1.2 0.2 0.5 0.2 0.9 0.6 0.3 0.3 0.5 0.9 0.2 0.5 0.2 1.2 0 0.6-0.2 1.1-0.2 0.6-0.5 0.9-0.4 0.4-0.9 0.6-0.6 0.2-1.2 0.2-0.6 0-1.2-0.2-0.5-0.2-0.9-0.6-0.3-0.3-0.5-0.9-0.2-0.5-0.2-1.1 0-0.7 0.2-1.2zm1.4 1.8q0 0.3 0.2 0.6 0.1 0.2 0.4 0.4 0.2 0.1 0.6 0.1 0.4 0 0.6-0.1 0.3-0.2 0.5-0.4 0.1-0.3 0.2-0.6 0-0.3 0-0.6 0-0.4 0-0.7-0.1-0.3-0.2-0.5-0.2-0.3-0.5-0.4-0.2-0.2-0.6-0.2-0.4 0-0.6 0.2-0.3 0.1-0.4 0.4-0.2 0.2-0.2 0.5-0.1 0.3-0.1 0.7 0 0.3 0.1 0.6z"/>
			<path id="&lt;Path&gt;" class="s2" d="m164.8 46.4q-0.1-0.4-0.3-0.7-0.2-0.3-0.6-0.5-0.4-0.1-1-0.1-0.4 0-0.8 0.2-0.5 0.2-0.8 0.7v-2.9h-1.5v7c0 0.4 0.3 0.7 0.8 0.7 0.4 0 0.7-0.3 0.7-0.7v-2.3q0-0.8 0.3-1.2 0.3-0.4 0.9-0.4 0.5 0 0.7 0.4 0.2 0.3 0.2 1v3.2h1.5v-3.5q0-0.5-0.1-0.9z"/>
			<path id="&lt;Path&gt;" class="s2" d="m175.7 45.1q-0.3 0-0.5 0.1-0.3 0.1-0.5 0.2-0.3 0.2-0.4 0.4-0.2 0.2-0.3 0.5v-1.1h-1.5v4.9c0 0.4 0.4 0.7 0.8 0.7 0.4 0 0.7-0.3 0.7-0.7v-1.8q0-0.4 0.1-0.7 0.1-0.4 0.3-0.6 0.1-0.2 0.4-0.4 0.3-0.1 0.7-0.1 0.2 0 0.3 0 0.1 0 0.2 0v-1.4q-0.1 0-0.3 0z"/>
			<path id="&lt;Path&gt;" class="s2" d="m186.5 45.2l-1.2 3.8-1.2-3.8h-1.6l1.9 5.2q0 0.1 0 0.3 0 0.2-0.1 0.5-0.2 0.2-0.4 0.2-0.3 0-0.5 0-0.2 0-0.4-0.1c-0.3 0-0.6 0.2-0.6 0.6 0 0.4 0.2 0.6 0.6 0.7q0.2 0 0.4 0 0.3 0 0.5 0 0.8 0 1.2-0.3 0.4-0.3 0.7-0.9l2.3-6.2z"/>
			<path id="&lt;Compound Path&gt;" class="s2" d="m57.8 50.1h0.1c0 0.4 0.3 0.7 0.7 0.7 0.4 0 0.7-0.3 0.7-0.7v-4.8h-1.5zm0.8-5.7c0.4 0 0.8-0.4 0.8-0.8 0-0.4-0.4-0.7-0.8-0.7-0.4 0-0.7 0.3-0.7 0.7 0 0.4 0.3 0.8 0.7 0.8z"/>
			<path id="&lt;Compound Path&gt;" class="s2" d="m176.7 50.1c0 0.4 0.3 0.7 0.7 0.7 0.4 0 0.8-0.3 0.8-0.7v-4.8h-1.5zm0.7-5.7c0.5 0 0.8-0.4 0.8-0.8 0-0.4-0.3-0.7-0.8-0.7-0.4 0-0.7 0.3-0.7 0.7 0 0.4 0.3 0.8 0.7 0.8z"/>
			<path id="&lt;Path&gt;" class="s2" d="m34.4 46.3q-0.2-0.4-0.5-0.7-0.2-0.2-0.6-0.3-0.4-0.1-0.8-0.1-0.6 0-1 0.3-0.4 0.3-0.6 0.6-0.3-0.5-0.7-0.7-0.4-0.2-1-0.2-0.5 0-0.9 0.2-0.4 0.3-0.7 0.7v-0.8h-1.4v5.5h1.5v-3.2q0-0.4 0.1-0.6 0.1-0.2 0.2-0.4 0.2-0.1 0.4-0.2 0.2 0 0.3 0 0.3 0 0.5 0.1 0.2 0.1 0.3 0.3 0 0.2 0.1 0.5 0 0.2 0 0.5v3h1.5v-3q0-0.3 0-0.5 0.1-0.3 0.2-0.5 0.1-0.2 0.3-0.3 0.2-0.1 0.5-0.1 0.3 0 0.5 0.1 0.2 0.1 0.3 0.3 0.1 0.2 0.1 0.4 0 0.2 0 0.5v2.4c0 0.4 0.3 0.7 0.7 0.7h0.1c0.4 0 0.7-0.3 0.7-0.7v-2.9q0-0.6-0.1-0.9z"/>
			<path id="&lt;Path&gt;" class="s2" d="m44 46.3q-0.2-0.4-0.4-0.7-0.3-0.2-0.7-0.3-0.3-0.1-0.8-0.1-0.5 0-1 0.3-0.4 0.3-0.6 0.6-0.3-0.5-0.7-0.7-0.4-0.2-0.9-0.2-0.6 0-1 0.2-0.4 0.3-0.7 0.7v-0.8h-1.4v5.5h1.5v-3.2q0-0.4 0.1-0.6 0.1-0.2 0.3-0.4 0.1-0.1 0.3-0.2 0.2 0 0.3 0 0.3 0 0.5 0.1 0.2 0.1 0.3 0.3 0.1 0.2 0.1 0.5 0 0.2 0 0.5v3h1.5v-3q0-0.3 0-0.5 0.1-0.3 0.2-0.5 0.1-0.2 0.3-0.3 0.2-0.1 0.5-0.1 0.3 0 0.5 0.1 0.2 0.1 0.3 0.3 0.1 0.2 0.1 0.4 0 0.2 0 0.5v2.4c0 0.4 0.3 0.7 0.7 0.7h0.1c0.4 0 0.7-0.3 0.7-0.7v-2.9q0-0.6-0.1-0.9z"/>
			<path id="&lt;Path&gt;" class="s2" d="m123.1 46.3q-0.2-0.4-0.4-0.7-0.3-0.2-0.7-0.3-0.3-0.1-0.8-0.1-0.5 0-1 0.3-0.4 0.3-0.6 0.6-0.3-0.5-0.7-0.7-0.4-0.2-0.9-0.2-0.6 0-1 0.2-0.4 0.3-0.7 0.7v-0.8h-1.4v5.5h1.5v-3.2q0-0.4 0.1-0.6 0.1-0.2 0.3-0.4 0.1-0.1 0.3-0.2 0.2 0 0.3 0 0.3 0 0.5 0.1 0.2 0.1 0.3 0.3 0.1 0.2 0.1 0.5 0 0.2 0 0.5v3h1.5v-3q0-0.3 0-0.5 0.1-0.3 0.2-0.5 0.1-0.2 0.3-0.3 0.2-0.1 0.5-0.1 0.3 0 0.5 0.1 0.2 0.1 0.3 0.3 0.1 0.2 0.1 0.4 0 0.2 0 0.5v2.4c0 0.4 0.3 0.7 0.7 0.7h0.1c0.4 0 0.7-0.3 0.7-0.7v-2.9q0-0.6-0.1-0.9z"/>
			<path id="&lt;Path&gt;" class="s2" d="m63.5 45.3h-1.1v-2.2h-1.5v7c0 0.4 0.4 0.7 0.8 0.7 0.4 0 0.7-0.3 0.7-0.7v-3.8h1.1z"/>
			<path id="&lt;Path&gt;" class="s2" d="m139.4 45.3h-1v-2.2h-1.5v7c0 0.4 0.3 0.7 0.7 0.7 0.4 0 0.8-0.3 0.8-0.7v-3.8h1z"/>
			<path id="&lt;Path&gt;" class="s2" d="m159 45.3h-1v-2.2h-1.5v7c0 0.4 0.3 0.7 0.7 0.7 0.4 0 0.8-0.3 0.8-0.7v-3.8h1z"/>
			<path id="&lt;Path&gt;" class="s2" d="m182 45.3h-1v-2.2h-1.5v7c0 0.4 0.3 0.7 0.8 0.7 0.4 0 0.7-0.3 0.7-0.7v-3.8h1z"/>
			<path id="&lt;Path&gt;" class="s2" d="m68 45.2l-1.2 3.8h-0.1l-1.2-3.8h-1.6l1.9 5.2q0.1 0.1 0.1 0.3 0 0.3-0.2 0.5-0.1 0.2-0.4 0.2-0.2 0-0.5 0-0.2 0-0.4-0.1c-0.3 0-0.6 0.2-0.6 0.6 0 0.4 0.3 0.6 0.6 0.7q0.3 0 0.5 0 0.2 0 0.4 0 0.8 0 1.2-0.3 0.5-0.2 0.7-0.9l2.3-6.2z"/>
			<path id="&lt;Path&gt;" class="s2" d="m56.7 50.1v-2.6q0-0.6-0.1-1-0.1-0.4-0.3-0.7-0.3-0.3-0.6-0.4-0.4-0.2-1-0.2-0.5 0-1 0.2-0.4 0.2-0.7 0.7v-0.8h-1.5v5.5h1.6v-2.9q-0.1-0.8 0.2-1.1 0.3-0.4 0.9-0.4 0.5 0 0.7 0.3 0.3 0.4 0.3 1v2.4c0 0.4 0.3 0.7 0.7 0.7 0.4 0 0.8-0.3 0.8-0.7z"/>
			<path id="&lt;Path&gt;" class="s2" d="m135.6 50.1v-2.6q0-0.6-0.1-1-0.1-0.4-0.3-0.7-0.2-0.3-0.6-0.4-0.4-0.2-1-0.2-0.5 0-0.9 0.2-0.5 0.2-0.8 0.7v-0.8h-1.4v5.5h1.5v-2.9q0-0.8 0.2-1.1 0.3-0.4 0.9-0.4 0.6 0 0.8 0.3 0.2 0.4 0.2 1v2.4c0 0.4 0.3 0.7 0.7 0.7 0.5 0 0.8-0.3 0.8-0.7z"/>
			<path id="&lt;Path&gt;" class="s2" d="m48.9 45.2v2.9q0 0.8-0.3 1.2-0.3 0.4-0.9 0.4-0.5 0-0.7-0.4-0.2-0.3-0.2-1v-3.1h-1.5v3.4q0 0.5 0.1 0.9 0.1 0.5 0.3 0.7 0.2 0.3 0.6 0.5 0.4 0.2 1 0.1 0.4 0 0.9-0.2 0.5-0.2 0.7-0.7h0.1v0.1c0 0.4 0.3 0.7 0.7 0.7 0.4 0 0.7-0.3 0.7-0.7v-4.8z"/>
			<path id="&lt;Path&gt;" class="s2" d="m153.4 45.2v2.9q0 0.8-0.3 1.2-0.2 0.4-0.8 0.4-0.6 0-0.8-0.4-0.2-0.3-0.2-1v-3.1h-1.5v3.4q0 0.5 0.1 0.9 0.1 0.5 0.3 0.7 0.2 0.3 0.6 0.5 0.4 0.2 1 0.1 0.5 0 0.9-0.2 0.5-0.2 0.8-0.7v0.1c0 0.4 0.3 0.7 0.7 0.7 0.4 0 0.7-0.3 0.7-0.7v-4.8z"/>
			<path id="&lt;Compound Path&gt;" fill-rule="evenodd" class="s2" d="m76.9 43.1q0.7 0 1.4 0.3 0.6 0.2 1.1 0.7 0.5 0.4 0.7 1.2 0.3 0.7 0.3 1.6 0 0.9-0.2 1.6-0.2 0.7-0.7 1.2-0.4 0.5-1.1 0.8-0.6 0.3-1.5 0.3h-3.3v-7.7zm-0.2 6.3q0.4 0 0.8-0.1 0.3-0.1 0.6-0.4 0.3-0.3 0.4-0.7 0.2-0.5 0.2-1.1 0-0.6-0.1-1.1-0.2-0.4-0.4-0.8-0.3-0.3-0.7-0.5-0.4-0.2-1.1-0.2h-1.2v4.9z"/>
			<path id="&lt;Path&gt;" class="s2" d="m18.8 47.8c0-0.4-0.4-0.8-0.8-0.8-0.4 0-0.8 0.4-0.8 0.8-0.1 1-0.7 1.7-1.7 1.7-1.4 0-2-1.3-2-2.5 0-1.3 0.6-2.5 2-2.5 0.8 0 1.5 0.5 1.6 1.3h1.6c-0.2-1.7-1.6-2.7-3.2-2.7-2.2 0-3.6 1.7-3.6 3.9 0 2.1 1.4 3.8 3.6 3.8 1.8 0 3-1.1 3.2-2.7q0.1-0.2 0.1-0.3z"/>
			<path id="&lt;Compound Path&gt;" fill-rule="evenodd" class="s2" d="m149.1 49.8c0.1 0.4 0 0.8-0.4 0.9q0 0.1-0.1 0.1 0 0-0.1 0c-0.3 0.1-0.7-0.1-0.8-0.5l-0.5-1.2h-2.9l-0.6 1.7h-1.7l2.9-7.7h1.7l2.5 6.7zm-2.3-2.1l-1-2.8-1 2.8z"/>
			<path id="&lt;Compound Path&gt;" fill-rule="evenodd" class="s2" d="m105 38.6c0 0.5-0.4 0.8-0.8 0.8-0.4 0-0.8-0.3-0.8-0.8 0-0.4 0.4-0.7 0.8-0.7 0.4 0 0.8 0.3 0.8 0.7zm-22.1-8.9h1.5v6.9c0 0.5-0.3 0.8-0.7 0.8-0.5 0-0.8-0.3-0.8-0.8zm20 9c0 0.4-0.4 0.7-0.8 0.7-0.4 0-0.7-0.3-0.7-0.7 0-0.4 0.3-0.8 0.7-0.8 0.4 0 0.8 0.4 0.8 0.8zm-11.8-8.2c0-0.4 0.3-0.7 0.8-0.7 0.4 0 0.7 0.3 0.7 0.7 0 0.4-0.3 0.8-0.7 0.8-0.5 0-0.8-0.4-0.8-0.8zm-9.3 0v6.9h-10.2c-0.4 0.7-1.1 1-1.9 1-0.8 0-1.5-0.3-1.9-1h-36.5c-0.5 0.7-1.1 1-1.9 1-0.8 0-1.5-0.3-1.9-1h-13.1c-0.8 0.1-1 0.7-1 1.2v0.9h-1.5v-0.9c0-0.8 0.5-2.2 1.9-2.5h0.2l-1.4-1.3c0-1.7 1.2-3 3.2-3 2 0 3.2 1.3 3.2 3l-1.4 1.3h9.3q-0.1-0.3-0.1-0.6c0-1.7 1.2-3 2.6-3 1.4 0 2.6 1.3 2.6 3q0 0.3-0.1 0.6h11.4v-3.2c0-0.4 0.3-0.8 0.7-0.8 0.4 0 0.8 0.4 0.8 0.8v3.2h12.9c-0.3-2.8-3-2.6-3-2.6v-1.4c3 0 4.3 1.8 4.5 4h8q-0.1-0.3-0.1-0.6c0-1.7 1.2-3 2.6-3 1.4 0 2.6 1.3 2.6 3q0 0.3-0.1 0.6h8.1v-5.6c0-0.4 0.3-0.8 0.8-0.8 0.4 0 0.7 0.4 0.7 0.8zm-64.3 3.9c-0.1-0.7-0.7-1.3-1.7-1.3-1 0-1.6 0.6-1.7 1.3 0.4 0.4 1.3 1.2 1.7 1.5zm13 1c0-1-0.5-1.7-1.1-1.7-0.6 0-1 0.7-1 1.7 0 0.9 0.4 1.6 1 1.6 0.6 0 1.1-0.7 1.1-1.6zm40.3 0c0-1-0.5-1.7-1.1-1.7-0.5 0-1 0.7-1 1.7 0 0.9 0.5 1.6 1 1.6 0.6 0 1.1-0.7 1.1-1.6zm18.2-4.9c0-0.4 0.4-0.8 0.8-0.8 0.4 0 0.7 0.4 0.7 0.8 0 0.4-0.3 0.7-0.7 0.7-0.4 0-0.8-0.3-0.8-0.7zm49.9 0c0-0.4 0.4-0.8 0.8-0.8 0.4 0 0.7 0.4 0.7 0.8 0 0.4-0.3 0.7-0.7 0.7-0.4 0-0.8-0.3-0.8-0.7zm-2.1 0c0-0.4 0.4-0.8 0.8-0.8 0.4 0 0.7 0.4 0.7 0.8 0 0.4-0.3 0.7-0.7 0.7-0.4 0-0.8-0.3-0.8-0.7zm-93.5 0c0-0.4 0.3-0.8 0.8-0.8 0.4 0 0.7 0.4 0.7 0.8 0 0.4-0.3 0.7-0.7 0.7-0.5 0-0.8-0.3-0.8-0.7zm14.2 8.1c0 0.5-0.3 0.8-0.7 0.8-0.4 0-0.8-0.3-0.8-0.8 0-0.4 0.4-0.7 0.8-0.7 0.4 0 0.7 0.3 0.7 0.7zm-16.3-8.1c0-0.4 0.3-0.8 0.8-0.8 0.4 0 0.7 0.4 0.7 0.8 0 0.4-0.3 0.7-0.7 0.7-0.5 0-0.8-0.3-0.8-0.7zm86.7 0c0-0.4 0.4-0.8 0.8-0.8 0.4 0 0.7 0.4 0.7 0.8 0 0.4-0.3 0.7-0.7 0.7-0.4 0-0.8-0.3-0.8-0.7zm19.2 0c0-0.4 0.4-0.8 0.8-0.8 0.4 0 0.7 0.4 0.7 0.8 0 0.4-0.3 0.7-0.7 0.7-0.4 0-0.8-0.3-0.8-0.7zm27.3 8.1c0 0.5-0.4 0.8-0.8 0.8-0.4 0-0.7-0.3-0.7-0.8 0-0.4 0.3-0.7 0.7-0.7 0.4 0 0.8 0.3 0.8 0.7zm-25.2-8.1c0-0.4 0.4-0.8 0.8-0.8 0.4 0 0.7 0.4 0.7 0.8 0 0.4-0.3 0.7-0.7 0.7-0.4 0-0.8-0.3-0.8-0.7zm12.7 0.7h-2.7v-0.7h0.6v-0.1c0-0.3 0.1-1.2 1.1-1.2q0.7 0 1 0.6c-0.1 0.1-0.7 0.2-0.7 0.2q-0.1-0.2-0.3-0.2c-0.4 0-0.4 0.4-0.4 0.6v0.1h1.4zm26.2 2.9v3.3h-39.8c-1.1 0-2.4-0.7-2.4-2.7 0-1.9 0.9-2.8 2.4-2.8h2.4v4.2h9.7v-3.2c0.1-0.5 0.4-0.8 0.8-0.8 0.4 0 0.7 0.3 0.7 0.8h0.1v3.2h10.9v-3.2c0-0.4 0.3-0.8 0.7-0.8 0.5 0 0.8 0.4 0.8 0.8v3.2h7.4v-2c0-1.4 1-2.4 2.5-2.7v-0.9h1.3v0.9c1.5 0.3 2.5 1.3 2.5 2.7zm-38.9-0.9h-0.8c-0.9 0-1 0.9-1 1.5 0 0.7 0.3 1.4 1 1.4h0.8zm35.1-0.4c-0.4 0.1-1 0.4-1 1.2v2h1zm2.4 1.3c0-0.8-0.7-1.1-1.1-1.3v3.3h1.1zm-46.3-1.2v4.5h-22.7c-0.5 0.7-1.2 1-2 1-0.7 0-1.4-0.3-1.9-1h-23.6c-1.1 0-2.4-0.7-2.4-2.7 0-1.9 0.9-2.8 2.4-2.8h2.4v4.2h10.9v-3.2c0-0.4 0.3-0.8 0.8-0.8 0.4 0 0.7 0.4 0.7 0.8v3.2h8.2q0-0.3 0-0.6c0-1.7 1.1-3 2.5-3 1.5 0 2.6 1.3 2.6 3q0 0.3 0 0.6h9.7v-3.2c0-0.4 0.3-0.8 0.7-0.8 0.4 0 0.7 0.4 0.7 0.8v3.2h9.5v-3.2q0 0 0 0c0-0.4 0.4-0.8 0.8-0.8 0.4 0 0.7 0.4 0.7 0.8zm-49.3 0.3h-0.8c-0.8 0-1 0.9-1 1.5 0 0.7 0.4 1.4 1 1.4h0.8zm25.7 2.2c0-0.9-0.5-1.7-1.1-1.7-0.5 0-1 0.8-1 1.7 0 0.9 0.5 1.6 1 1.6 0.6 0 1.1-0.7 1.1-1.6zm55.5 3.3c0 0.4-0.3 0.7-0.8 0.7-0.4 0-0.7-0.3-0.7-0.7 0-0.5 0.3-0.8 0.7-0.8 0.5 0 0.8 0.3 0.8 0.8z"/>
		</g>
	</g>
</svg>